<svg xmlns="http://www.w3.org/2000/svg" xmlns:xlink="http://www.w3.org/1999/xlink" width="1920" height="1080" viewBox="0 0 1920 1080">
<defs>
<path id="e1" d="M617.3 576.1Q601.6 577.8 591.8 570.2Q581.9 562.7 580.4 547.8Q579.4 538.3 582.7 525.2L618.3 381.3Q623.5 360.2 635.1 349.3Q646.7 338.5 666.4 336.4Q687.5 334.2 701.3 342.1Q715.1 350.1 724.9 370.1L790.2 503.4Q795.8 514.9 796.8 524.9Q798.3 538.9 789.9 548.9Q781.5 558.9 767.2 560.4Q752.6 561.9 743.7 555.6Q734.8 549.3 728.9 533.4L723.4 518.6L650.4 526.3L648 540.8Q645.1 558.3 637.9 566.5Q630.7 574.7 617.3 576.1ZM657.7 475.9 704.4 471 672.6 392 671.3 392.1Z M824.1 551.7Q810.1 550.4 801.8 541.6Q793.6 532.8 795.1 515.9L805.1 401.3Q806.4 386 815.2 378.3Q823.9 370.6 838.9 371.9Q853.8 373.3 862 382.4Q870.3 391.6 868.9 407L868.6 410.9L869.8 411Q877.9 393.6 891.2 385.9Q904.5 378.2 924.1 379.9Q943.4 381.6 956.1 390.4Q968.7 399.3 974.4 414.5Q980 429.6 978.2 450.3L971.1 531.3Q969.6 548.2 960 555.5Q950.3 562.7 936.3 561.5Q922.3 560.2 914.1 551.4Q905.8 542.6 907.3 525.7L913.2 458.9Q914.3 446 908.9 438Q903.5 430 891.5 428.9Q884 428.3 878.2 431.4Q872.5 434.5 869 440.5Q865.5 446.4 864.8 454.5L858.9 521.4Q857.4 538.4 847.8 545.6Q838.1 552.9 824.1 551.7Z M1077.9 635.9Q1047 637.5 1026.1 628.8Q1005.1 620.1 996.7 607.4Q994.4 603.8 993.4 600Q992.3 596.2 992.1 592.7Q991.6 583.4 998 576.8Q1004.4 570.1 1015.9 569.5Q1027 568.9 1036.4 575.3Q1045 581.1 1054.4 585Q1063.7 588.9 1074 588.4Q1089.8 587.5 1097.9 579.4Q1106 571.4 1105.3 558.2L1103.9 530.5L1102.6 530.5Q1100.3 539.7 1093.5 547.1Q1086.7 554.4 1076.4 558.8Q1066.2 563.3 1053.2 563.9Q1032.3 565 1016.6 555.9Q1001 546.8 992 528.7Q983 510.5 981.6 484.6Q980.2 457.6 987.1 438.6Q994 419.5 1008.7 409Q1023.4 398.6 1045.4 397.4Q1058.1 396.7 1068.4 400.6Q1078.8 404.4 1086.4 411.6Q1093.9 418.8 1097.7 428.3L1099 428.2L1098.8 425.3Q1097.9 408.6 1106.8 400.5Q1115.7 392.3 1129.4 391.6Q1143.3 390.9 1152.6 398.1Q1161.9 405.2 1162.8 421.9L1169.8 556.3Q1171.1 580.5 1160.9 597.7Q1150.7 614.9 1129.8 624.6Q1108.8 634.3 1077.9 635.9ZM1076.5 518.6Q1085.2 518.1 1091.1 513.6Q1097 509.1 1099.8 500.5Q1102.6 491.9 1102 479.6Q1101.3 467.2 1097.6 458.6Q1093.9 449.9 1087.4 445.5Q1081 441.1 1072.5 441.5Q1063.9 442 1058 447.1Q1052.2 452.1 1049.4 461.1Q1046.6 470.1 1047.2 482.3Q1047.9 494.6 1051.5 502.9Q1055.1 511.1 1061.5 515.1Q1067.9 519.1 1076.5 518.6Z M1200.2 560.3Q1186.3 558.8 1178.2 549.9Q1170.1 540.9 1171.9 524L1189.3 357.9Q1191.1 340.9 1200.9 333.9Q1210.6 326.8 1224.6 328.3Q1238.6 329.7 1246.7 338.7Q1254.8 347.6 1253 364.7L1235.6 530.7Q1233.8 547.6 1224 554.7Q1214.2 561.7 1200.2 560.3Z M1315.3 575.2Q1299.7 576.3 1286 570.5Q1272.3 564.8 1263.5 553.5Q1254.7 542.2 1253.6 526.7Q1251.9 502 1269.4 487.2Q1287 472.4 1321.3 468L1358.8 463L1358.2 454.6Q1357.6 445.9 1351.5 441.8Q1345.3 437.6 1336.3 438.3Q1328.8 438.8 1323.8 441.7Q1318.9 444.7 1311.1 452.9Q1300.6 463.9 1286.8 464.9Q1275.4 465.7 1267.7 459.9Q1260 454.1 1259.3 444.1Q1258.9 438.8 1259.9 434.5Q1263.7 417.7 1284.1 406.9Q1304.5 396.2 1336.6 393.9Q1360.5 392.3 1378.9 398.4Q1397.4 404.6 1408.3 417.1Q1419.2 429.7 1420.4 447.1L1426.6 536.6Q1427.8 553.1 1419.4 561.5Q1411.1 569.9 1397.2 570.9Q1384.6 571.8 1375.9 565.9Q1367.2 560 1364.6 546.1Q1364.6 546.1 1364.6 546.1Q1364.6 546.1 1364.6 546.1L1363.4 546.2Q1359.5 554.9 1351.9 561.2Q1344.4 567.4 1334.8 571Q1325.3 574.5 1315.3 575.2ZM1336.2 530.8Q1343.3 530.3 1349.3 527.4Q1355.3 524.5 1358.9 519.5Q1362.4 514.6 1362 508.4L1361.2 497.1L1334.2 500.9Q1325.2 502.2 1320.5 506.6Q1315.8 511 1316.3 517.4Q1316.8 524.4 1322.3 527.9Q1327.8 531.4 1336.2 530.8Z M1472.5 372.5Q1459 371.3 1450.7 361.8Q1442.3 352.3 1443.4 339.6Q1444.6 326.6 1454.4 318.8Q1464.3 310.9 1477.8 312.1Q1491.4 313.3 1499.7 322.8Q1508.1 332.2 1506.9 345.1Q1505.8 357.9 1496 365.8Q1486.1 373.7 1472.5 372.5ZM1455.9 562.4Q1440.8 561.1 1433.2 551.7Q1425.5 542.4 1426.9 526.6L1436.8 413Q1438.2 397.3 1447.4 389.4Q1456.5 381.5 1471.6 382.8Q1486.9 384.1 1494.5 393.6Q1502 403 1500.7 418.7L1490.7 532.2Q1489.3 547.9 1480.3 555.9Q1471.2 563.8 1455.9 562.4Z M1598.9 572.9Q1563.1 576 1541 568.3Q1518.9 560.6 1511.7 546.8Q1509.1 541.4 1508.6 536.7Q1507.7 526.4 1514 519.1Q1520.3 511.8 1530.9 510.9Q1545 509.7 1559.7 521Q1567.6 527 1576.2 529.5Q1584.8 532.1 1595.2 531.2Q1601.4 530.6 1605.8 528.8Q1610.1 527 1612.2 524.2Q1614.4 521.3 1614.1 517.8Q1613.7 513.1 1609.2 510.7Q1604.7 508.2 1593.6 507.2L1561.9 504.1Q1536 501.7 1521.6 489.5Q1507.2 477.2 1505.5 457.3Q1503.1 430.4 1523.2 413.1Q1543.2 395.8 1580.7 392.5Q1602.1 390.7 1618.3 394.2Q1634.5 397.7 1645.2 404.8Q1655.8 411.8 1659.9 420.7Q1662 425.3 1662.4 429.8Q1663.2 438.8 1657.9 445.1Q1652.5 451.5 1639.9 452.6Q1635.1 453 1628.9 451.7Q1622.6 450.3 1618.5 447.7Q1611.4 443.3 1603.9 438.3Q1596.4 433.2 1584.4 434.2Q1575.8 435 1570.7 438.7Q1565.6 442.5 1566.2 448.4Q1566.6 452.9 1570.9 455.6Q1575.2 458.3 1587.1 459.4L1618.7 462.5Q1647 465.2 1661 475.3Q1675 485.5 1676.7 504.9Q1678.3 523.6 1669.1 538.1Q1659.8 552.7 1641.8 561.7Q1623.8 570.7 1598.9 572.9Z"/>
<clipPath id="c2"><use xlink:href="#e1"/></clipPath>
<path id="e3" d="M745.6 219.7C745.2 219.6 744.7 219.7 744.4 219.8C742.6 220.1 741.4 221.4 741.1 223.3C741 224 741 224.5 741.1 225C741.3 226.8 742.6 228 744.4 228.1C756.1 228.9 774.6 228.5 787.2 227.1C787.3 227.1 787.4 227.1 787.5 227C790.2 226.6 791.5 225 791.3 222.5C791.3 222.3 791.3 222.2 791.2 222C790.9 219.9 789.4 218.4 786.5 218.7C774.2 220 756.9 220.4 745.6 219.7ZM768 272.4C770.5 270.1 772.9 267.7 775.5 264.8C780.7 258.7 786.7 251.7 791.9 245C793.1 243.4 793.6 241.9 793.4 240.3C793.3 239.5 792.9 238.6 792.3 237.8C791 236.2 789.3 235.7 786.7 236.1C786.4 236.2 786 236.2 785.7 236.3C771.1 240.2 750.5 244.8 737.5 247.1C735.4 247.4 734.3 249.6 734.7 251.8C734.7 251.9 734.7 251.9 734.7 252C735.2 254.4 737 255.9 739.5 255.6C751.9 253.3 770.4 248.8 782 245C776.8 250.8 769.5 260 762.1 269C753 280.4 743.9 292 737.5 300.1C736.4 301.5 736.1 302.9 736.3 304.2C736.5 305.4 737.2 306.4 738.2 307.1C739.1 307.9 740.3 308.1 741.5 307.9C742.7 307.7 743.8 307 744.9 305.7C749.1 300.3 753.8 294 757.9 288.7C764.4 280.4 771.1 276.1 776 275.3C779.5 274.8 781.7 276 783.3 283.6C786.2 297.4 790.6 301 803.2 299C809.7 298 817.2 295.2 822 291.9C823.8 290.7 824.4 289 824.1 287.3C824 286.7 823.8 286.1 823.4 285.4C822.4 283.9 820.9 283.2 819.4 283.5C818.7 283.6 818 283.9 817.3 284.3C813.1 287.2 807.9 289.8 802.5 290.7C795.4 291.8 793.3 290.2 791 279.8C788.8 270 785.2 267.1 778.7 268.1C775.9 268.6 772.3 269.9 768.7 273Z M834.2 224.1C834.6 235.3 835.2 247.4 836.1 255.7C837.6 270.7 841.3 282 846 288.6C849.7 293.7 854.4 295.5 858.8 295.4C862.7 295.3 866.7 293.3 870.1 288.9C873.4 284.3 875.8 277.1 877 267.4C877 267.1 877 266.8 877 266.5C876.9 264 875.3 262.8 872.9 262.5C872.6 262.4 872.2 262.5 871.9 262.5C869.7 262.5 868.6 263.7 868.3 266.3C867.5 273.5 865.8 279 863.7 282.3C862.3 284.8 860.3 285.7 857.9 285.7C855.6 285.8 852.9 283.9 851.4 281.3C848.1 275.2 846 267.2 844.6 254.8C844.1 250 843.8 243.8 843.5 237.1C843.4 232.8 843.2 228.2 843.1 223.8C843 221.2 842.1 219.5 838.8 219.6C835.9 219.7 834.1 221.4 834.2 224.1ZM893.9 223.7C892.5 224.4 891.7 225.8 891.8 227.2C891.8 228.1 892.2 229 892.7 229.8C902.5 242.7 909.5 261.2 911.6 278.6C911.9 281.2 913.6 282.6 916 282.5C916.3 282.5 916.7 282.4 917.1 282.3C919.7 281.7 920.7 279.9 920.6 277.2C920.6 277 920.6 276.8 920.6 276.5C918.5 258.8 910.4 238 899.9 224.9C898.9 223.4 897.7 222.9 896.3 222.9C895.5 222.9 894.7 223.2 893.9 223.7Z M988.9 211C982.8 214.6 977.4 218 973.1 220.9C971.9 221.8 971.4 223.1 971.5 224.3C971.6 225.1 972 225.8 972.5 226.4C973.4 227.2 974.5 227.6 975.6 227.5C976.5 227.4 977.6 226.9 978.7 226.2C986 221 994 214.9 1001.1 210C1003.1 208.7 1003.6 207.2 1003.4 205.4C1003.3 204.9 1003.1 204.3 1003 203.7C1002.2 201.8 1000.3 200.8 998 201.1C997.8 201.1 997.7 201.1 997.5 201.1C991.2 202.3 981.7 203.9 971.5 205.2C961.8 206.4 952.6 207.2 946 207.5L945.5 207.5C943.1 207.8 941.8 209.2 941.8 211.6C941.8 211.8 941.9 212.2 941.9 212.4C942.2 214.5 943.6 215.9 945.9 216C952.2 215.8 960.6 215 969 214C975.5 213.2 982.7 211.9 988.6 210.5ZM942.8 264.8C943.7 272.7 948.5 277.5 956.5 279.7C963 281.3 972 281.6 982.9 280.2C996.2 278.6 1007.4 276.2 1015.1 273C1017.6 272 1019 270.3 1018.7 268C1018.7 267.6 1018.5 267.1 1018.3 266.6C1017.5 264.5 1016 263.5 1013.9 263.8C1013.3 263.8 1012.8 264 1012.2 264.2C1004.6 266.9 994 269.8 981.6 271.3C972.7 272.4 966 272.4 960.9 271.3C955.1 270.2 951.9 267.5 951.3 262.5C950.8 258.3 953 253.5 957.1 248.6C958 247.7 958.2 246.6 958.1 245.7C958 244.6 957.5 243.8 956.3 243.1C955.4 242.5 954.5 242.2 953.4 242.4C952.2 242.5 951 243.2 950.1 244.3C943.9 251.3 942 258.6 942.8 264.8ZM997 225.8C997.1 226.7 997.6 227.5 998.3 228.2C1001.6 231 1005.2 234.9 1007.8 238.4C1008.6 239.6 1009.5 240 1010.7 239.8C1012.7 239.6 1014 238.1 1013.8 236.5C1013.6 235.2 1013.1 234.5 1012.7 233.9C1010.4 230.8 1006 226.3 1002.5 223.5C1001.5 222.7 1000.8 222.5 999.6 222.7C998 222.9 996.8 224.5 997 225.8ZM1007.5 217.7C1007.7 219 1008 219.4 1009.1 220.2C1012.2 222.9 1015.4 226.6 1018.2 230.2C1019 231.3 1019.8 231.7 1021 231.6C1023 231.3 1024 229.5 1023.9 228.3C1023.8 227.1 1023.3 226.4 1023 225.8C1020.7 222.7 1016.1 217.8 1013.1 215.6C1012.1 214.8 1011.3 214.5 1010.2 214.7C1008.7 214.8 1007.3 216.4 1007.5 217.7Z"/>
<clipPath id="uj"><rect x="-140" y="-92" width="280" height="184" rx="30"/></clipPath>
<g id="silhouette"><path d="M617.3,576.1 L613.5,576.4 L609.8,576.4 L606.3,576.1 L603.1,575.5 L600,574.6 L597.1,573.4 L594.3,572 L591.8,570.2 L589.4,568.2 L587.4,566 L585.6,563.5 L584,560.9 L582.7,557.9 L581.7,554.8 L580.9,551.4 L580.4,547.8 L580.2,545.4 L580.2,542.8 L580.2,540.2 L580.5,537.4 L580.8,534.5 L581.3,531.5 L582,528.4 L582.7,525.2 L618.3,381.3 L619.7,376.2 L621.3,371.4 L623.1,366.9 L625.1,362.8 L627.3,358.9 L629.7,355.4 L632.3,352.2 L635.1,349.3 L638.1,346.8 L641.4,344.5 L644.9,342.4 L648.7,340.7 L652.8,339.2 L657,338 L661.6,337 L666.4,336.4 L671.6,336 L676.5,335.9 L681.2,336.2 L685.7,336.7 L690,337.6 L694,338.8 L697.8,340.3 L701.3,342.1 L704.7,344.3 L708,346.9 L711.1,349.8 L714.1,353.1 L717,356.8 L719.8,360.9 L722.4,365.3 L724.9,370.1 L790.2,503.4 L791.5,506.3 L792.7,509.1 L793.7,511.8 L794.6,514.5 L795.4,517.2 L796,519.8 L796.5,522.4 L796.8,524.9 L797,528.3 L796.9,531.6 L796.5,534.8 L795.8,537.9 L794.8,540.8 L793.5,543.6 L791.9,546.3 L789.9,548.9 L787.7,551.2 L785.4,553.3 L782.8,555.2 L780.1,556.7 L777.1,558 L774,559.1 L770.7,559.8 L767.2,560.4 L763.7,560.6 L760.3,560.6 L757.1,560.4 L754.1,559.9 L751.2,559.2 L748.5,558.3 L746,557 L743.7,555.6 L741.5,553.9 L739.5,551.9 L737.5,549.5 L735.6,546.9 L733.8,544 L732.1,540.8 L730.4,537.3 L728.9,533.4 L723.4,518.6 L650.4,526.3 L648,540.8 L647.2,545.1 L646.3,549 L645.2,552.6 L644,556 L642.7,559 L641.2,561.8 L639.6,564.3 L637.9,566.5 L636,568.4 L633.9,570.2 L631.6,571.7 L629.1,573 L626.5,574.1 L623.6,575 L620.5,575.7 L617.3,576.1 Z M824.1,551.7 L820.7,551.2 L817.5,550.6 L814.4,549.7 L811.5,548.5 L808.8,547.2 L806.3,545.6 L804,543.7 L801.8,541.6 L799.9,539.3 L798.3,536.7 L797,533.9 L796,530.8 L795.3,527.4 L795,523.8 L794.9,520 L795.1,515.9 L805.1,401.3 L805.6,397.6 L806.2,394.1 L807.2,390.9 L808.3,387.9 L809.7,385.2 L811.3,382.7 L813.1,380.4 L815.2,378.3 L817.5,376.6 L820,375.1 L822.6,373.8 L825.5,372.9 L828.6,372.2 L831.8,371.9 L835.2,371.8 L838.9,371.9 L842.5,372.4 L845.9,373.1 L849.1,374 L852.1,375.2 L854.9,376.7 L857.5,378.3 L859.9,380.3 L862,382.4 L864,384.8 L865.6,387.4 L866.9,390.2 L867.9,393.2 L868.6,396.4 L869,399.7 L869.1,403.3 L868.9,407 L868.6,410.9 L869.8,411 L871.9,406.8 L874.2,402.9 L876.6,399.3 L879.2,396 L882,393 L884.9,390.3 L888,387.9 L891.2,385.9 L894.7,384.1 L898.3,382.6 L902.1,381.4 L906.1,380.5 L910.3,379.9 L914.7,379.6 L919.3,379.6 L924.1,379.9 L928.9,380.4 L933.4,381.2 L937.7,382.2 L941.8,383.4 L945.7,384.8 L949.3,386.4 L952.8,388.3 L956.1,390.4 L959.1,392.7 L962,395.3 L964.6,398 L967,400.9 L969.1,404 L971.1,407.3 L972.8,410.8 L974.4,414.5 L975.7,418.3 L976.7,422.4 L977.6,426.6 L978.2,431 L978.5,435.6 L978.7,440.3 L978.5,445.2 L978.2,450.3 L971.1,531.3 L970.6,535.4 L969.9,539.1 L968.9,542.6 L967.6,545.8 L966.1,548.7 L964.3,551.2 L962.3,553.5 L960,555.5 L957.5,557.1 L954.9,558.6 L952.1,559.7 L949.3,560.6 L946.2,561.2 L943.1,561.6 L939.8,561.6 L936.3,561.5 L932.9,561 L929.7,560.4 L926.6,559.5 L923.8,558.4 L921.1,557 L918.6,555.4 L916.2,553.5 L914.1,551.4 L912.2,549.1 L910.6,546.5 L909.3,543.7 L908.3,540.6 L907.6,537.3 L907.2,533.7 L907.1,529.8 L907.3,525.7 L913.2,458.9 L913.3,455.8 L913.3,452.8 L913.1,449.9 L912.6,447.2 L912,444.7 L911.2,442.3 L910.1,440.1 L908.9,438 L907.4,436.1 L905.7,434.4 L903.9,433 L901.8,431.7 L899.5,430.7 L897,429.9 L894.4,429.3 L891.5,428.9 L889.6,428.8 L887.8,428.8 L886.1,429 L884.4,429.2 L882.8,429.6 L881.2,430.1 L879.7,430.7 L878.2,431.4 L876.8,432.2 L875.5,433.1 L874.2,434.1 L873,435.2 L871.9,436.4 L870.9,437.6 L869.9,439 L869,440.5 L868.1,442 L867.4,443.6 L866.7,445.2 L866.2,447 L865.7,448.7 L865.3,450.6 L865,452.5 L864.8,454.5 L858.9,521.4 L858.4,525.5 L857.7,529.3 L856.6,532.8 L855.4,536 L853.9,538.9 L852.1,541.4 L850.1,543.7 L847.8,545.6 L845.3,547.3 L842.7,548.7 L839.9,549.9 L837,550.8 L834,551.4 L830.8,551.7 L827.5,551.8 L824.1,551.7 Z M1077.9,635.9 L1070.4,636.1 L1063.1,636 L1056.2,635.6 L1049.5,634.9 L1043.2,633.9 L1037.2,632.5 L1031.5,630.8 L1026.1,628.8 L1021.1,626.6 L1016.4,624.2 L1012.1,621.7 L1008.3,619.1 L1004.8,616.4 L1001.7,613.5 L999,610.5 L996.7,607.4 L996.1,606.5 L995.6,605.6 L995.2,604.7 L994.7,603.8 L994.3,602.8 L994,601.9 L993.7,601 L993.4,600 L993.1,599.1 L992.9,598.1 L992.7,597.2 L992.5,596.3 L992.4,595.4 L992.3,594.5 L992.2,593.6 L992.1,592.7 L992.1,590.4 L992.3,588.2 L992.7,586.1 L993.4,584.1 L994.2,582.1 L995.3,580.3 L996.5,578.5 L998,576.8 L999.7,575.2 L1001.5,573.8 L1003.5,572.6 L1005.7,571.6 L1008,570.8 L1010.5,570.2 L1013.1,569.7 L1015.9,569.5 L1018.7,569.5 L1021.4,569.6 L1024,570 L1026.6,570.7 L1029.1,571.5 L1031.6,572.6 L1034.1,573.8 L1036.4,575.3 L1038.6,576.7 L1040.8,578.1 L1043,579.4 L1045.2,580.6 L1047.5,581.8 L1049.8,582.9 L1052.1,584 L1054.4,585 L1056.7,585.9 L1059.1,586.7 L1061.5,587.3 L1064,587.8 L1066.5,588.1 L1069,588.4 L1071.5,588.4 L1074,588.4 L1077.9,588 L1081.4,587.5 L1084.8,586.7 L1087.9,585.7 L1090.8,584.5 L1093.4,583 L1095.8,581.4 L1097.9,579.4 L1099.8,577.3 L1101.4,575.1 L1102.7,572.7 L1103.8,570.1 L1104.6,567.4 L1105.1,564.5 L1105.4,561.4 L1105.3,558.2 L1103.9,530.5 L1102.6,530.5 L1102,532.8 L1101.2,535 L1100.2,537.2 L1099.2,539.3 L1098,541.3 L1096.6,543.3 L1095.1,545.2 L1093.5,547.1 L1091.7,548.8 L1089.9,550.5 L1087.9,552.1 L1085.8,553.7 L1083.6,555.1 L1081.3,556.4 L1078.9,557.7 L1076.4,558.8 L1073.8,559.9 L1071.1,560.8 L1068.3,561.6 L1065.5,562.3 L1062.5,562.9 L1059.5,563.4 L1056.4,563.7 L1053.2,563.9 L1048.1,564.1 L1043.1,563.9 L1038.3,563.3 L1033.6,562.5 L1029.1,561.3 L1024.8,559.8 L1020.6,558 L1016.6,555.9 L1012.8,553.5 L1009.2,550.8 L1005.8,547.8 L1002.7,544.6 L999.7,541 L996.9,537.2 L994.3,533.1 L992,528.7 L989.8,524 L988,519.1 L986.3,514 L984.9,508.6 L983.7,503 L982.8,497.1 L982.1,491 L981.6,484.6 L981.4,478 L981.4,471.6 L981.7,465.5 L982.3,459.6 L983.1,454 L984.2,448.6 L985.5,443.5 L987.1,438.6 L988.9,433.9 L991,429.6 L993.4,425.5 L996,421.7 L998.8,418.1 L1001.8,414.8 L1005.2,411.8 L1008.7,409 L1012.5,406.6 L1016.5,404.4 L1020.8,402.5 L1025.2,400.9 L1029.9,399.6 L1034.9,398.6 L1040,397.8 L1045.4,397.4 L1048.5,397.3 L1051.6,397.4 L1054.6,397.5 L1057.5,397.9 L1060.3,398.3 L1063.1,398.9 L1065.8,399.7 L1068.4,400.6 L1071,401.6 L1073.4,402.7 L1075.8,403.9 L1078.1,405.3 L1080.3,406.7 L1082.4,408.2 L1084.4,409.9 L1086.4,411.6 L1088.2,413.4 L1089.9,415.4 L1091.5,417.3 L1093,419.4 L1094.4,421.5 L1095.6,423.7 L1096.7,426 L1097.7,428.3 L1099,428.2 L1098.8,425.3 L1098.8,421.2 L1099,417.5 L1099.5,414 L1100.4,410.7 L1101.5,407.8 L1103,405.1 L1104.8,402.6 L1106.8,400.5 L1109.1,398.5 L1111.6,396.8 L1114.2,395.4 L1116.9,394.2 L1119.8,393.2 L1122.9,392.4 L1126.1,391.9 L1129.4,391.6 L1132.8,391.5 L1136.1,391.7 L1139.2,392.2 L1142.2,392.8 L1145,393.8 L1147.7,395 L1150.2,396.4 L1152.6,398.1 L1154.8,400 L1156.8,402.2 L1158.4,404.8 L1159.8,407.6 L1161,410.7 L1161.8,414.2 L1162.4,417.9 L1162.8,421.9 L1169.8,556.3 L1170,562.2 L1169.8,567.9 L1169.2,573.4 L1168.2,578.7 L1166.9,583.8 L1165.3,588.6 L1163.3,593.2 L1160.9,597.7 L1158.2,601.8 L1155.1,605.8 L1151.7,609.5 L1148,613 L1144,616.2 L1139.6,619.2 L1134.8,622 L1129.8,624.6 L1124.4,626.9 L1118.7,628.9 L1112.7,630.7 L1106.3,632.2 L1099.7,633.5 L1092.8,634.6 L1085.5,635.3 L1077.9,635.9 Z M1200.2,560.3 L1196.8,559.8 L1193.6,559.1 L1190.6,558.1 L1187.7,556.9 L1185.1,555.5 L1182.6,553.9 L1180.3,552 L1178.2,549.9 L1176.3,547.5 L1174.7,544.9 L1173.5,542 L1172.5,538.9 L1171.9,535.6 L1171.6,531.9 L1171.6,528.1 L1171.9,524 L1189.3,357.9 L1189.9,353.8 L1190.7,350 L1191.8,346.5 L1193.1,343.4 L1194.7,340.5 L1196.5,338 L1198.5,335.8 L1200.9,333.9 L1203.4,332.2 L1206,330.9 L1208.8,329.8 L1211.7,328.9 L1214.7,328.4 L1217.9,328.1 L1221.2,328 L1224.6,328.3 L1228,328.7 L1231.3,329.5 L1234.3,330.4 L1237.1,331.6 L1239.8,333 L1242.3,334.7 L1244.6,336.6 L1246.7,338.7 L1248.6,341 L1250.1,343.7 L1251.4,346.5 L1252.3,349.7 L1253,353 L1253.3,356.7 L1253.3,360.6 L1253,364.7 L1235.6,530.7 L1235,534.8 L1234.2,538.5 L1233.1,542 L1231.8,545.1 L1230.2,548 L1228.4,550.5 L1226.3,552.8 L1224,554.7 L1221.5,556.3 L1218.9,557.7 L1216.1,558.8 L1213.2,559.6 L1210.1,560.2 L1207,560.5 L1203.7,560.5 L1200.2,560.3 Z M1253.5,520.7 L1259.3,439.1 L1259.4,437.9 L1259.5,436.7 L1259.7,435.6 L1259.9,434.5 L1261.1,430.4 L1262.8,426.5 L1265.1,422.7 L1267.9,419.2 L1271.1,415.8 L1275,412.7 L1279.3,409.7 L1284.1,406.9 L1289.4,404.4 L1295,402.1 L1301.1,400 L1307.4,398.3 L1314.2,396.8 L1321.3,395.6 L1328.8,394.6 L1336.6,393.9 L1342.5,393.6 L1348.2,393.6 L1353.7,393.8 L1359.1,394.2 L1364.3,394.9 L1369.3,395.8 L1374.2,397 L1378.9,398.4 L1383.4,400 L1387.7,401.9 L1391.7,403.9 L1395.5,406.2 L1399,408.6 L1402.3,411.2 L1405.4,414.1 L1408.3,417.1 L1410.8,420.3 L1413.1,423.7 L1415.1,427.2 L1416.7,430.9 L1418.1,434.7 L1419.2,438.7 L1419.9,442.8 L1420.4,447.1 L1426.6,536.6 L1426.8,540.6 L1426.6,544.3 L1426.2,547.8 L1425.4,551.1 L1424.4,554.1 L1423,556.8 L1421.4,559.3 L1419.4,561.5 L1417.3,563.5 L1414.9,565.3 L1412.4,566.8 L1409.7,568.1 L1406.9,569.1 L1403.8,570 L1400.6,570.5 L1397.2,570.9 L1315.3,575.2 L1311.4,575.4 L1307.6,575.3 L1303.9,575.1 L1300.2,574.6 L1296.6,573.9 L1293,573 L1289.5,571.9 L1286,570.5 L1282.6,569 L1279.5,567.3 L1276.4,565.4 L1273.5,563.4 L1270.8,561.2 L1268.2,558.8 L1265.8,556.2 L1263.5,553.5 L1261.4,550.6 L1259.6,547.6 L1258,544.4 L1256.7,541.1 L1255.5,537.7 L1254.7,534.2 L1254,530.5 L1253.6,526.7 Z M1472.5,372.5 L1469.2,372.1 L1466.1,371.4 L1463.1,370.5 L1460.3,369.3 L1457.6,367.8 L1455.2,366.1 L1452.8,364.1 L1450.7,361.8 L1448.7,359.4 L1447.1,356.9 L1445.7,354.2 L1444.7,351.5 L1443.9,348.7 L1443.5,345.7 L1443.3,342.7 L1443.4,339.6 L1443.8,336.4 L1444.5,333.4 L1445.5,330.6 L1446.7,327.9 L1448.3,325.4 L1450,323 L1452.1,320.8 L1454.4,318.8 L1456.9,317 L1459.6,315.4 L1462.3,314.2 L1465.2,313.2 L1468.2,312.5 L1471.3,312.1 L1474.5,312 L1477.8,312.1 L1481.1,312.6 L1484.3,313.2 L1487.3,314.2 L1490.1,315.4 L1492.7,316.8 L1495.2,318.6 L1497.5,320.5 L1499.7,322.8 L1501.7,325.2 L1503.3,327.7 L1504.6,330.3 L1505.7,333.1 L1506.5,335.9 L1506.9,338.9 L1507.1,341.9 L1506.9,345.1 L1506.5,348.2 L1505.8,351.2 L1504.9,354 L1503.6,356.7 L1502.1,359.2 L1500.3,361.5 L1498.3,363.7 L1496,365.8 L1493.4,367.6 L1490.8,369.2 L1488,370.5 L1485.2,371.4 L1482.2,372.1 L1479.1,372.6 L1475.9,372.7 L1472.5,372.5 Z M1455.9,562.4 L1452.3,562 L1448.8,561.3 L1445.6,560.3 L1442.7,559.1 L1440,557.6 L1437.5,555.9 L1435.2,554 L1433.2,551.7 L1431.4,549.3 L1429.9,546.6 L1428.7,543.8 L1427.8,540.8 L1427.1,537.5 L1426.8,534.1 L1426.7,530.5 L1426.9,526.6 L1436.8,413 L1437.3,409.2 L1438,405.6 L1439,402.3 L1440.2,399.2 L1441.6,396.4 L1443.3,393.8 L1445.2,391.5 L1447.4,389.4 L1449.8,387.6 L1452.3,386 L1455.1,384.8 L1458,383.8 L1461.2,383.1 L1464.5,382.7 L1468,382.6 L1471.6,382.8 L1475.3,383.3 L1478.8,384 L1482,384.9 L1485,386.2 L1487.7,387.6 L1490.2,389.4 L1492.4,391.3 L1494.5,393.6 L1496.2,396 L1497.7,398.7 L1498.9,401.5 L1499.8,404.6 L1500.4,407.8 L1500.8,411.3 L1500.9,414.9 L1500.7,418.7 L1490.7,532.2 L1490.3,536 L1489.6,539.6 L1488.6,542.9 L1487.4,546 L1486,548.8 L1484.3,551.4 L1482.4,553.8 L1480.3,555.9 L1477.9,557.7 L1475.3,559.2 L1472.6,560.5 L1469.6,561.5 L1466.5,562.1 L1463.2,562.5 L1459.6,562.6 L1455.9,562.4 Z M1505.2,450.7 L1505.7,444.4 L1506.8,438.5 L1508.7,432.8 L1511.3,427.4 L1514.5,422.3 L1518.5,417.6 L1523.2,413.1 L1528.4,409 L1534.3,405.3 L1540.7,402.1 L1547.6,399.3 L1555,397 L1563.1,395 L1571.6,393.6 L1580.7,392.5 L1586,392.1 L1591.1,391.9 L1596,391.9 L1600.8,392 L1605.4,392.3 L1609.8,392.8 L1614.1,393.4 L1618.3,394.2 L1622.3,395.1 L1626,396.2 L1629.7,397.3 L1633.1,398.6 L1636.4,400 L1639.5,401.5 L1642.4,403.1 L1645.2,404.8 L1647.7,406.6 L1650.1,408.4 L1652.2,410.3 L1654.2,412.3 L1655.9,414.3 L1657.4,416.4 L1658.8,418.5 L1659.9,420.7 L1660.4,421.9 L1660.8,423 L1661.2,424.1 L1661.6,425.3 L1661.9,426.4 L1662.1,427.5 L1676.1,500.2 L1676.7,504.9 L1676.9,509.5 L1676.8,514 L1676.4,518.3 L1675.6,522.6 L1674.5,526.6 L1673,530.6 L1671.2,534.4 L1669.1,538.1 L1666.6,541.7 L1663.9,545 L1660.9,548.2 L1657.6,551.3 L1654.1,554.1 L1650.3,556.8 L1646.2,559.3 L1641.8,561.7 L1637.2,563.8 L1632.4,565.8 L1627.3,567.5 L1622,569 L1616.6,570.3 L1610.9,571.4 L1605,572.2 L1598.9,572.9 L1590.1,573.5 L1581.8,573.8 L1573.9,573.7 L1566.5,573.3 L1559.5,572.6 L1552.9,571.5 L1546.7,570.1 L1541,568.3 L1535.7,566.3 L1530.9,564.1 L1526.5,561.7 L1522.6,559.1 L1519.2,556.3 L1516.2,553.3 L1513.7,550.1 L1511.7,546.8 L1511.1,545.4 L1510.5,544.1 L1510,542.8 L1509.6,541.6 L1509.3,540.3 L1509,539.1 L1508.8,537.9 L1508.6,536.7 L1508.5,534.2 L1505.5,457.3 Z"/><path d="M745.6,219.7 L745.4,219.7 L745.3,219.7 L745.1,219.7 L745,219.7 L744.8,219.7 L744.7,219.7 L744.6,219.7 L744.4,219.8 L743.8,219.9 L743.2,220.2 L742.7,220.5 L742.2,220.9 L741.8,221.4 L741.5,222 L741.3,222.6 L741.1,223.3 L741.1,223.6 L741,223.8 L741,224 L741,224.2 L741,224.4 L741,224.6 L741,224.8 L741.1,225 L741.2,225.7 L741.4,226.2 L741.8,226.7 L742.2,227.2 L742.6,227.5 L743.1,227.8 L743.7,228 L744.4,228.1 L749.1,228.3 L754.2,228.5 L759.7,228.5 L765.4,228.4 L771.2,228.2 L776.8,227.9 L782.2,227.6 L787.2,227.1 L787.2,227.1 L787.3,227.1 L787.3,227.1 L787.3,227.1 L787.4,227.1 L787.4,227.1 L787.5,227.1 L787.5,227 L788.4,226.8 L789.3,226.5 L789.9,226.1 L790.5,225.6 L790.9,225 L791.2,224.2 L791.3,223.4 L791.3,222.5 L791.3,222.5 L791.3,222.4 L791.3,222.3 L791.3,222.3 L791.3,222.2 L791.3,222.2 L791.2,222.1 L791.2,222 L791.1,221.3 L790.8,220.6 L790.4,220 L789.8,219.5 L789.2,219.1 L788.4,218.8 L787.5,218.7 L786.5,218.7 L781.7,219.1 L776.5,219.5 L771.1,219.8 L765.6,220 L760.2,220 L755,220 L750.1,219.9 L745.6,219.7 Z M768,272.4 L769,271.5 L769.9,270.6 L770.8,269.7 L771.7,268.8 L772.6,267.8 L773.6,266.9 L774.5,265.8 L775.5,264.8 L777.5,262.4 L779.5,260 L781.6,257.6 L783.7,255.1 L785.8,252.6 L787.9,250.1 L789.9,247.5 L791.9,245 L792.3,244.4 L792.7,243.8 L793,243.2 L793.2,242.6 L793.4,242.1 L793.4,241.5 L793.5,240.9 L793.4,240.3 L793.3,240 L793.3,239.7 L793.2,239.4 L793,239.1 L792.9,238.7 L792.7,238.4 L792.5,238.1 L792.3,237.8 L791.7,237.2 L791.2,236.8 L790.6,236.4 L790,236.2 L789.3,236 L788.5,236 L787.6,236 L786.7,236.1 L786.6,236.1 L786.5,236.2 L786.3,236.2 L786.2,236.2 L786.1,236.2 L785.9,236.2 L785.8,236.3 L785.7,236.3 L780,237.8 L773.8,239.3 L767.4,240.8 L761,242.3 L754.6,243.7 L748.5,245 L742.7,246.1 L737.5,247.1 L736.8,247.3 L736.1,247.6 L735.6,248.1 L735.2,248.7 L734.9,249.4 L734.7,250.2 L734.6,251 L734.7,251.8 L734.7,251.9 L734.7,251.9 L734.7,251.9 L734.7,251.9 L734.7,252 L734.7,252 L734.7,252 L734.7,252 L734.9,252.9 L735.3,253.6 L735.8,254.3 L736.3,254.8 L737,255.2 L737.8,255.5 L738.6,255.6 L739.5,255.6 L744.4,254.7 L749.7,253.5 L755.3,252.3 L761,250.9 L766.7,249.4 L772.2,247.9 L777.4,246.4 L782,245 L780,247.3 L777.8,249.9 L775.4,252.8 L772.9,255.8 L770.3,259 L767.6,262.3 L764.9,265.6 L762.1,269 L758.7,273.3 L755.3,277.5 L752,281.7 L748.8,285.8 L745.7,289.7 L742.7,293.4 L740,296.9 L737.5,300.1 L737.1,300.7 L736.8,301.2 L736.6,301.7 L736.4,302.2 L736.3,302.7 L736.3,303.2 L736.3,303.7 L736.3,304.2 L736.4,304.6 L736.6,305.1 L736.7,305.4 L737,305.8 L737.2,306.2 L737.5,306.5 L737.8,306.8 L738.2,307.1 L738.5,307.4 L738.9,307.6 L739.3,307.8 L739.7,307.9 L740.2,308 L740.6,308 L741,308 L741.5,307.9 L741.9,307.8 L742.4,307.7 L742.8,307.5 L743.2,307.3 L743.7,307 L744.1,306.6 L744.5,306.2 L744.9,305.7 L746.5,303.6 L748.1,301.5 L749.8,299.4 L751.4,297.2 L753.1,295 L754.7,292.8 L756.3,290.7 L757.9,288.7 L760.3,285.8 L762.8,283.2 L765.2,281 L767.5,279.2 L769.8,277.7 L772,276.6 L774.1,275.8 L776,275.3 L777.2,275.2 L778.4,275.3 L779.4,275.7 L780.3,276.4 L781.2,277.5 L782,279 L782.7,281.1 L783.3,283.6 L784.5,288.3 L785.9,292.1 L787.6,295.1 L789.6,297.2 L792.1,298.6 L795.2,299.4 L798.9,299.5 L803.2,299 L805.7,298.5 L808.2,297.9 L810.8,297.2 L813.3,296.3 L815.7,295.3 L818,294.3 L820.1,293.1 L822,291.9 L822.6,291.4 L823.1,290.9 L823.5,290.4 L823.8,289.8 L824,289.2 L824.1,288.6 L824.2,287.9 L824.1,287.3 L824.1,287 L824,286.8 L823.9,286.6 L823.9,286.3 L823.8,286.1 L823.7,285.9 L823.5,285.6 L823.4,285.4 L823,284.9 L822.6,284.4 L822.1,284 L821.6,283.8 L821.1,283.6 L820.5,283.5 L820,283.4 L819.4,283.5 L819.1,283.5 L818.9,283.6 L818.6,283.7 L818.3,283.8 L818.1,283.9 L817.8,284 L817.6,284.2 L817.3,284.3 L815.7,285.4 L814,286.4 L812.2,287.4 L810.4,288.3 L808.5,289.1 L806.5,289.7 L804.5,290.3 L802.5,290.7 L800.1,291 L798.1,290.9 L796.4,290.5 L795,289.5 L793.8,288.1 L792.8,286 L791.9,283.3 L791,279.8 L790.1,276.4 L789.1,273.7 L787.9,271.5 L786.5,269.9 L784.9,268.8 L783.1,268.1 L781,267.9 L778.7,268.1 L777.6,268.3 L776.5,268.6 L775.2,269.1 L774,269.6 L772.7,270.2 L771.4,271 L770,271.9 L768.7,273 Z M834.2,224.1 L834.4,228.3 L834.6,232.6 L834.7,236.8 L835,241 L835.2,245 L835.5,248.8 L835.7,252.4 L836.1,255.7 L836.7,261.2 L837.6,266.3 L838.6,271 L839.8,275.3 L841.2,279.2 L842.6,282.8 L844.2,285.9 L846,288.6 L847.4,290.3 L848.9,291.8 L850.5,293 L852.1,294 L853.8,294.7 L855.5,295.1 L857.1,295.4 L858.8,295.4 L860.3,295.3 L861.7,294.9 L863.2,294.4 L864.7,293.8 L866.1,292.9 L867.5,291.8 L868.8,290.4 L870.1,288.9 L871.3,287 L872.4,284.9 L873.4,282.6 L874.3,280 L875.2,277.2 L875.9,274.2 L876.5,270.9 L877,267.4 L877,267.3 L877,267.2 L877,267 L877,266.9 L877,266.8 L877,266.7 L877,266.6 L877,266.5 L876.9,265.6 L876.7,264.8 L876.3,264.2 L875.9,263.6 L875.3,263.2 L874.6,262.9 L873.8,262.7 L872.9,262.5 L872.8,262.5 L872.7,262.5 L872.6,262.5 L872.4,262.5 L872.3,262.5 L872.1,262.5 L872,262.5 L871.9,262.5 L871.1,262.5 L870.5,262.7 L869.9,263 L869.4,263.5 L869,264 L868.7,264.6 L868.4,265.4 L868.3,266.3 L867.9,269 L867.5,271.4 L867,273.7 L866.5,275.8 L865.9,277.7 L865.2,279.4 L864.5,281 L863.7,282.3 L863.2,283.2 L862.5,283.9 L861.9,284.5 L861.2,284.9 L860.4,285.3 L859.6,285.5 L858.8,285.7 L857.9,285.7 L857.1,285.7 L856.2,285.5 L855.2,285.1 L854.4,284.5 L853.5,283.9 L852.7,283.1 L852,282.2 L851.4,281.3 L850.2,278.9 L849.2,276.3 L848.2,273.5 L847.3,270.4 L846.5,267 L845.8,263.3 L845.2,259.2 L844.6,254.8 L844.4,252.9 L844.2,250.9 L844.1,248.9 L844,246.7 L843.8,244.4 L843.7,242 L843.6,239.6 L843.5,237.1 L843.5,235.5 L843.4,233.8 L843.4,232.2 L843.3,230.5 L843.2,228.8 L843.2,227.1 L843.1,225.5 L843.1,223.8 L843,222.9 L842.8,222.1 L842.5,221.3 L842.1,220.7 L841.6,220.2 L840.8,219.9 L839.9,219.6 L838.8,219.6 L837.7,219.7 L836.8,220 L836,220.4 L835.4,220.9 L834.9,221.5 L834.5,222.3 L834.3,223.2 L834.2,224.1 Z M893.9,223.7 L893.4,224 L893,224.3 L892.6,224.7 L892.3,225.2 L892.1,225.7 L891.9,226.2 L891.8,226.7 L891.8,227.2 L891.8,227.5 L891.9,227.9 L891.9,228.2 L892.1,228.5 L892.2,228.8 L892.3,229.2 L892.5,229.5 L892.7,229.8 L896.3,234.9 L899.5,240.4 L902.5,246.3 L905.1,252.5 L907.3,258.9 L909.1,265.4 L910.6,272 L911.6,278.6 L911.8,279.5 L912.1,280.3 L912.5,281 L913,281.5 L913.6,282 L914.3,282.3 L915.1,282.4 L916,282.5 L916.1,282.5 L916.2,282.5 L916.4,282.5 L916.5,282.4 L916.7,282.4 L916.8,282.4 L917,282.4 L917.1,282.3 L918,282 L918.8,281.6 L919.4,281.2 L919.9,280.6 L920.2,279.9 L920.5,279.1 L920.6,278.2 L920.6,277.2 L920.6,277.1 L920.6,277.1 L920.6,277 L920.6,276.9 L920.6,276.8 L920.6,276.7 L920.6,276.6 L920.6,276.5 L919.5,269.7 L917.9,262.8 L915.9,255.8 L913.4,249 L910.5,242.3 L907.3,236 L903.7,230.1 L899.9,224.9 L899.5,224.4 L899.1,223.9 L898.7,223.6 L898.3,223.3 L897.8,223.1 L897.3,223 L896.8,222.9 L896.3,222.9 L896,222.9 L895.7,223 L895.4,223 L895.1,223.1 L894.8,223.2 L894.5,223.4 L894.2,223.5 L893.9,223.7 Z M988.9,211 L986.6,212.3 L984.4,213.6 L982.3,214.9 L980.3,216.2 L978.4,217.4 L976.5,218.6 L974.8,219.8 L973.1,220.9 L972.7,221.2 L972.3,221.6 L972,222 L971.8,222.5 L971.6,222.9 L971.5,223.4 L971.5,223.9 L971.5,224.3 L971.6,224.6 L971.7,224.9 L971.8,225.2 L971.9,225.4 L972,225.7 L972.2,225.9 L972.4,226.2 L972.5,226.4 L972.9,226.7 L973.2,227 L973.6,227.2 L974,227.3 L974.3,227.4 L974.8,227.5 L975.2,227.5 L975.6,227.5 L976,227.4 L976.3,227.4 L976.7,227.2 L977.1,227.1 L977.5,226.9 L977.9,226.7 L978.3,226.4 L978.7,226.2 L981.5,224.2 L984.3,222.1 L987.1,220.1 L990,218 L992.8,215.9 L995.6,213.9 L998.4,211.9 L1001.1,210 L1001.8,209.5 L1002.3,209 L1002.7,208.5 L1003.1,207.9 L1003.3,207.3 L1003.4,206.7 L1003.4,206.1 L1003.4,205.4 L1003.4,205.2 L1003.3,205 L1003.3,204.8 L1003.2,204.6 L1003.2,204.4 L1003.1,204.2 L1003,203.9 L1003,203.7 L1002.6,203 L1002.2,202.5 L1001.7,202 L1001.1,201.6 L1000.4,201.3 L999.6,201.1 L998.9,201 L998,201.1 L998,201.1 L997.9,201.1 L997.8,201.1 L997.8,201.1 L997.7,201.1 L997.6,201.1 L997.6,201.1 L997.5,201.1 L995,201.6 L992.2,202.1 L989.2,202.6 L986,203.1 L982.5,203.6 L979,204.2 L975.3,204.7 L971.5,205.2 L967.9,205.6 L964.3,206 L960.9,206.3 L957.6,206.6 L954.4,206.9 L951.4,207.1 L948.6,207.3 L946,207.5 L945.5,207.5 L944.6,207.7 L943.9,207.9 L943.3,208.3 L942.8,208.8 L942.3,209.3 L942,210 L941.9,210.8 L941.8,211.6 L941.8,211.7 L941.8,211.8 L941.8,211.9 L941.8,212 L941.9,212.1 L941.9,212.2 L941.9,212.3 L941.9,212.4 L942,213.1 L942.3,213.8 L942.7,214.4 L943.1,215 L943.7,215.4 L944.3,215.7 L945.1,215.9 L945.9,216 L948.3,215.9 L951,215.7 L953.8,215.5 L956.7,215.3 L959.7,215 L962.8,214.7 L965.9,214.3 L969,214 L971.5,213.6 L974,213.3 L976.5,212.9 L979,212.4 L981.5,212 L984,211.5 L986.3,211 L988.6,210.5 Z M942.8,264.8 L943.3,267.6 L944.2,270.2 L945.4,272.4 L947,274.4 L948.9,276.1 L951.1,277.5 L953.7,278.7 L956.5,279.7 L959.1,280.3 L961.9,280.7 L964.9,280.9 L968.1,281.1 L971.5,281.1 L975.1,281 L978.9,280.7 L982.9,280.2 L987.8,279.6 L992.5,278.9 L996.9,278.1 L1001.1,277.2 L1005,276.3 L1008.7,275.3 L1012.1,274.2 L1015.1,273 L1016,272.6 L1016.8,272.1 L1017.4,271.6 L1018,271 L1018.4,270.3 L1018.6,269.6 L1018.7,268.8 L1018.7,268 L1018.7,267.8 L1018.7,267.7 L1018.6,267.5 L1018.6,267.3 L1018.5,267.1 L1018.4,267 L1018.4,266.8 L1018.3,266.6 L1018,265.8 L1017.6,265.2 L1017.1,264.7 L1016.6,264.3 L1016,264 L1015.3,263.8 L1014.6,263.7 L1013.9,263.8 L1013.7,263.8 L1013.4,263.8 L1013.2,263.9 L1013,263.9 L1012.8,264 L1012.6,264.1 L1012.4,264.1 L1012.2,264.2 L1009.2,265.2 L1006,266.2 L1002.5,267.2 L998.7,268.2 L994.7,269.1 L990.5,269.9 L986.2,270.7 L981.6,271.3 L978.4,271.7 L975.3,271.9 L972.5,272.1 L969.8,272.1 L967.3,272.1 L965,271.9 L962.9,271.7 L960.9,271.3 L958.8,270.8 L957,270.2 L955.4,269.3 L954.1,268.4 L953.1,267.2 L952.2,265.8 L951.6,264.3 L951.3,262.5 L951.2,260.9 L951.4,259.3 L951.8,257.6 L952.5,255.8 L953.3,254.1 L954.4,252.3 L955.7,250.5 L957.1,248.6 L957.4,248.3 L957.7,247.9 L957.8,247.5 L958,247.1 L958.1,246.8 L958.1,246.4 L958.2,246 L958.1,245.7 L958.1,245.3 L958,244.9 L957.8,244.6 L957.6,244.2 L957.4,243.9 L957.1,243.6 L956.7,243.3 L956.3,243.1 L956,242.9 L955.7,242.7 L955.3,242.6 L954.9,242.5 L954.6,242.4 L954.2,242.4 L953.8,242.3 L953.4,242.4 L953,242.5 L952.5,242.6 L952.1,242.8 L951.6,243 L951.2,243.2 L950.8,243.5 L950.5,243.9 L950.1,244.3 L948,246.9 L946.2,249.6 L944.9,252.2 L943.8,254.8 L943.1,257.4 L942.7,260 L942.6,262.4 L942.8,264.8 Z M997,225.8 L997,226.2 L997.1,226.5 L997.3,226.8 L997.4,227.1 L997.6,227.4 L997.8,227.7 L998.1,227.9 L998.3,228.2 L999.6,229.3 L1000.8,230.5 L1002.1,231.7 L1003.3,233 L1004.5,234.4 L1005.7,235.7 L1006.8,237.1 L1007.8,238.4 L1008.1,238.8 L1008.5,239.2 L1008.8,239.4 L1009.1,239.6 L1009.5,239.8 L1009.9,239.8 L1010.3,239.9 L1010.7,239.8 L1011.5,239.7 L1012.1,239.4 L1012.6,239.1 L1013.1,238.7 L1013.4,238.2 L1013.7,237.7 L1013.8,237.1 L1013.8,236.5 L1013.7,236.1 L1013.6,235.6 L1013.5,235.3 L1013.4,235 L1013.2,234.7 L1013.1,234.4 L1012.9,234.2 L1012.7,233.9 L1011.8,232.7 L1010.6,231.4 L1009.4,230 L1008.1,228.6 L1006.7,227.2 L1005.2,225.8 L1003.8,224.6 L1002.5,223.5 L1002.1,223.2 L1001.8,223 L1001.4,222.9 L1001.1,222.7 L1000.8,222.7 L1000.4,222.6 L1000,222.6 L999.6,222.7 L999,222.8 L998.5,223.1 L998,223.4 L997.6,223.8 L997.3,224.3 L997.1,224.8 L997,225.3 L997,225.8 Z M1007.5,217.7 L1007.6,218.1 L1007.7,218.5 L1007.8,218.8 L1008,219.1 L1008.2,219.4 L1008.4,219.7 L1008.7,220 L1009.1,220.2 L1010.3,221.3 L1011.4,222.4 L1012.6,223.6 L1013.8,224.9 L1014.9,226.2 L1016,227.5 L1017.1,228.9 L1018.2,230.2 L1018.5,230.6 L1018.8,230.9 L1019.1,231.2 L1019.5,231.3 L1019.8,231.5 L1020.2,231.6 L1020.6,231.6 L1021,231.6 L1021.7,231.4 L1022.3,231.1 L1022.8,230.7 L1023.3,230.3 L1023.6,229.8 L1023.8,229.3 L1023.9,228.8 L1023.9,228.3 L1023.8,227.9 L1023.7,227.5 L1023.6,227.1 L1023.5,226.8 L1023.4,226.5 L1023.2,226.2 L1023.1,226 L1023,225.8 L1022,224.5 L1020.9,223.2 L1019.6,221.8 L1018.3,220.4 L1016.9,219 L1015.6,217.7 L1014.3,216.5 L1013.1,215.6 L1012.7,215.3 L1012.4,215.1 L1012,214.9 L1011.7,214.8 L1011.3,214.7 L1011,214.6 L1010.6,214.6 L1010.2,214.7 L1009.6,214.8 L1009.1,215 L1008.6,215.4 L1008.2,215.8 L1007.9,216.2 L1007.7,216.7 L1007.5,217.2 L1007.5,217.7 Z"/><g transform="translate(320 450) rotate(-10)"><rect x="-140" y="-92" width="280" height="184" rx="30"/></g><path d="M-80,-55 H80 A55,55 0 0 1 135,0 V0 A55,55 0 0 1 80,55 H-54 L-170,107 L-100,55 H-80 A55,55 0 0 1 -135,0 V0 A55,55 0 0 1 -80,-55 Z" transform="translate(1650 290) rotate(6)"/><rect x="-336" y="-135.8" width="672.1" height="271.7" rx="32" transform="translate(1080 805) rotate(-2)"/></g>
</defs>
<g transform="translate(939.3 488.4) scale(0.9637) translate(-960.0 -540.0)">
<use xlink:href="#silhouette" transform="translate(8 34)" fill="#011a52" stroke="#011a52" stroke-width="58" stroke-linejoin="round" stroke-linecap="round"/>
<use xlink:href="#silhouette" fill="#ffffff" stroke="#ffffff" stroke-width="58" stroke-linejoin="round" stroke-linecap="round"/>
<g clip-path="url(#c2)"><rect width="1920" height="1080" fill="#c8102e"/><path d="M480,489.9 L492,491.8 L504,493.4 L516,494.7 L528,495.7 L540,496.2 L552,496.3 L564,496.1 L576,495.4 L588,494.3 L600,492.7 L612,490.9 L624,488.6 L636,486.1 L648,483.4 L660,480.4 L672,477.2 L684,474 L696,470.8 L708,467.5 L720,464.4 L732,461.4 L744,458.6 L756,456.1 L768,453.8 L780,451.9 L792,450.4 L804,449.3 L816,448.5 L828,448.2 L840,448.4 L852,448.9 L864,449.8 L876,451.1 L888,452.7 L900,454.6 L912,456.7 L924,459 L936,461.5 L948,464 L960,466.5 L972,469 L984,471.4 L996,473.6 L1008,475.6 L1020,477.3 L1032,478.7 L1044,479.8 L1056,480.5 L1068,480.7 L1080,480.6 L1092,480 L1104,479.1 L1116,477.7 L1128,475.9 L1140,473.8 L1152,471.4 L1164,468.7 L1176,465.8 L1188,462.7 L1200,459.5 L1212,456.2 L1224,453 L1236,449.8 L1248,446.8 L1260,443.9 L1272,441.3 L1284,438.9 L1296,436.9 L1308,435.3 L1320,434 L1332,433.1 L1344,432.7 L1356,432.7 L1368,433.1 L1380,433.9 L1392,435 L1404,436.5 L1416,438.3 L1428,440.4 L1440,442.6 L1452,445 L1464,447.5 L1476,450.1 L1488,452.6 L1500,455 L1512,457.3 L1524,459.4 L1536,461.2 L1548,462.7 L1560,463.9 L1572,464.7 L1584,465.1 L1596,465.1 L1608,464.7 L1620,463.8 L1632,462.6 L1644,461 L1656,459 L1668,456.6 L1680,454 L1692,451.2 L1704,448.1 L1716,445 L1728,441.7 L1740,438.5 L1752,435.3 L1764,432.2 L1776,429.2 L1788,426.5 L1800,424.1 L1812,422 L1824,420.2 L1836,418.8 L1848,417.8 L1860,417.2 L1872,417 L1884,417.3 L1896,417.9 L1908,419 L1920,420.4 L1932,422.1 L1944,424.1 L1956,426.3 L1968,428.6 L1980,431.1 L1992,433.6 L2004,436.2 L2016,438.6 L2028,440.9 L2040,443.1 L2052,445 L2060,446.1 L2060,2000 L480,2000 Z" fill="#ef4a5f"/></g>
<use xlink:href="#e3" fill="#fff" stroke="#fff" stroke-width="33.8" stroke-linejoin="round"/>
<use xlink:href="#e3" fill="#011a52" stroke="#011a52" stroke-width="7.8" stroke-linejoin="round"/>
<g transform="translate(320 450) rotate(-10)"><g clip-path="url(#uj)"><rect x="-150" y="-100" width="300" height="200" fill="#012169"/><path d="M-150,-100 L150,100 M150,-100 L-150,100" stroke="#fff" stroke-width="40"/><path d="M-150,-100 L150,100 M150,-100 L-150,100" stroke="#c8102e" stroke-width="14"/><path d="M0,-100 V100 M-150,0 H150" stroke="#fff" stroke-width="60"/><path d="M0,-100 V100 M-150,0 H150" stroke="#c8102e" stroke-width="36"/></g></g>
<g transform="translate(1650 290) rotate(6)"><path d="M-80,-55 H80 A55,55 0 0 1 135,0 V0 A55,55 0 0 1 80,55 H-54 L-170,107 L-100,55 H-80 A55,55 0 0 1 -135,0 V0 A55,55 0 0 1 -80,-55 Z" fill="#fff" stroke="#011a52" stroke-width="8" stroke-linejoin="round"/><path d="M-75.2 18.7Q-78.1 18.7 -79.7 17.1Q-81.2 15.4 -81.2 12.4V-17.3Q-81.2 -20.3 -79.7 -21.9Q-78.1 -23.6 -75.2 -23.6Q-72.4 -23.6 -70.8 -21.9Q-69.2 -20.3 -69.2 -17.3V-7.3H-54.8V-17.3Q-54.8 -20.3 -53.3 -21.9Q-51.7 -23.6 -48.8 -23.6Q-46 -23.6 -44.4 -21.9Q-42.8 -20.3 -42.8 -17.3V12.4Q-42.8 15.4 -44.4 17.1Q-46 18.7 -48.8 18.7Q-51.7 18.7 -53.3 17.1Q-54.8 15.4 -54.8 12.4V2.2H-69.2V12.4Q-69.2 15.4 -70.8 17.1Q-72.4 18.7 -75.2 18.7Z M-22.3 18.8Q-29.9 18.8 -34.3 14.5Q-38.6 10.2 -38.6 2.5Q-38.6 -2.6 -36.7 -6.3Q-34.7 -10 -31.1 -12Q-27.5 -14.1 -22.6 -14.1Q-17.8 -14.1 -14.2 -12.2Q-10.6 -10.3 -8.7 -7Q-6.7 -3.7 -6.7 0.5Q-6.7 2.6 -7.8 3.7Q-9 4.8 -11.2 4.8H-27.4Q-27.4 5 -27.4 5.2Q-27.4 5.4 -27.4 5.6Q-27.4 7.9 -25.9 9.3Q-24.4 10.8 -22.1 10.8Q-20.2 10.8 -18.7 10.2Q-17.2 9.6 -15.5 8.1Q-14.6 7.3 -13.8 7Q-13.1 6.7 -12 6.7Q-10.3 6.7 -9 7.7Q-7.8 8.7 -7.8 10.6Q-7.8 11.9 -8.5 13.2Q-10.1 15.8 -13.8 17.3Q-17.5 18.8 -22.3 18.8ZM-27.2 -1.5H-17.5Q-17.6 -2.9 -18.2 -3.9Q-18.9 -4.9 -20 -5.5Q-21 -6.1 -22.4 -6.1Q-23.7 -6.1 -24.7 -5.5Q-25.8 -4.9 -26.5 -3.8Q-27.1 -2.8 -27.2 -1.5Z M2.8 18.7Q0.3 18.7 -1.4 17.2Q-3 15.8 -3 12.7V-17.6Q-3 -20.7 -1.4 -22.1Q0.3 -23.6 2.8 -23.6Q5.4 -23.6 7 -22.1Q8.6 -20.7 8.6 -17.5V12.7Q8.6 15.8 7 17.2Q5.4 18.7 2.8 18.7Z M19.1 18.7Q16.5 18.7 14.9 17.2Q13.3 15.8 13.3 12.7V-17.6Q13.3 -20.7 14.9 -22.1Q16.5 -23.6 19.1 -23.6Q21.6 -23.6 23.2 -22.1Q24.9 -20.7 24.9 -17.5V12.7Q24.9 15.8 23.2 17.2Q21.6 18.7 19.1 18.7Z M45 18.8Q39.9 18.8 36.2 16.9Q32.5 15 30.6 11.3Q28.6 7.6 28.6 2.3Q28.6 -2.8 30.6 -6.5Q32.6 -10.2 36.3 -12.1Q40 -14.1 45 -14.1Q50 -14.1 53.7 -12.1Q57.4 -10.2 59.4 -6.5Q61.5 -2.8 61.5 2.3Q61.5 7.6 59.5 11.3Q57.5 15 53.8 16.9Q50.1 18.8 45 18.8ZM45 10.5Q46.4 10.5 47.5 9.6Q48.5 8.6 49.1 6.8Q49.7 5 49.7 2.4Q49.7 -0.2 49.1 -2Q48.5 -3.8 47.5 -4.8Q46.4 -5.8 45 -5.8Q43.6 -5.8 42.5 -4.8Q41.5 -3.8 40.9 -2Q40.4 -0.2 40.4 2.4Q40.4 5 40.9 6.8Q41.5 8.6 42.5 9.6Q43.6 10.5 45 10.5Z M73.5 5.1Q71 5.1 69.7 3.7Q68.5 2.3 68.4 -0.2L67.8 -16.1Q67.7 -16.6 67.7 -17Q67.7 -17.5 67.7 -17.8Q67.7 -20.6 69.2 -22.1Q70.7 -23.6 73.5 -23.6Q76.2 -23.6 77.7 -22.1Q79.2 -20.6 79.2 -17.8Q79.2 -17.5 79.2 -17Q79.2 -16.6 79.2 -16.1L78.6 -0.2Q78.5 2.3 77.2 3.7Q76 5.1 73.5 5.1ZM73.5 19.1Q71 19.1 69.2 17.5Q67.4 15.8 67.4 13.5Q67.4 11.1 69.2 9.5Q71 7.8 73.5 7.8Q75.9 7.8 77.7 9.5Q79.5 11.1 79.5 13.5Q79.5 15.8 77.7 17.5Q75.9 19.1 73.5 19.1Z" fill="#011a52"/></g>
<g transform="translate(1080 805) rotate(-2)"><rect x="-332.5" y="-132.3" width="665.1" height="264.7" rx="32" fill="#ffffff" stroke="#c3cde6" stroke-width="7"/><path d="M-276.3 -62.5Q-278.6 -62.5 -279.9 -63.7Q-281.3 -64.8 -282 -67.5L-287.6 -88.4Q-287.8 -89.3 -288 -90.2Q-288.1 -91.1 -288.1 -91.8Q-288.1 -93.8 -286.9 -94.9Q-285.7 -96 -283.4 -96Q-279.7 -96 -278.9 -91.8L-275.6 -75H-275.4L-271.3 -92.2Q-270.9 -94.2 -269.8 -95.1Q-268.7 -96 -266.9 -96Q-263.3 -96 -262.4 -92.2L-258.4 -75H-258.2L-254.9 -91.8Q-254 -96 -250.3 -96Q-248.1 -96 -246.9 -94.9Q-245.6 -93.8 -245.6 -91.8Q-245.6 -90.4 -246.2 -88.4L-251.8 -67.4Q-252.5 -64.8 -253.8 -63.7Q-255.2 -62.5 -257.4 -62.5Q-259.7 -62.5 -261.1 -63.7Q-262.4 -64.8 -263.1 -67.5L-266.8 -81.6H-267L-270.7 -67.5Q-271.3 -64.9 -272.7 -63.7Q-274 -62.5 -276.3 -62.5Z M-237.3 -62.5Q-239.3 -62.5 -240.6 -63.6Q-241.9 -64.8 -241.9 -67.3V-91.4Q-241.9 -93.6 -240.7 -94.8Q-239.5 -96 -237.4 -96Q-235.2 -96 -234.1 -94.8Q-232.9 -93.6 -232.9 -91.3V-83H-232.7Q-231.8 -85.6 -229.8 -87Q-227.8 -88.3 -225 -88.3Q-220.8 -88.3 -218.6 -85.9Q-216.4 -83.4 -216.4 -78.9V-67.3Q-216.4 -64.8 -217.7 -63.6Q-219 -62.5 -221 -62.5Q-223 -62.5 -224.3 -63.6Q-225.6 -64.8 -225.6 -67.3V-76.9Q-225.6 -78.8 -226.5 -79.8Q-227.4 -80.9 -229.1 -80.9Q-230.3 -80.9 -231.1 -80.4Q-231.9 -79.9 -232.3 -79Q-232.7 -78.1 -232.7 -76.9V-67.3Q-232.7 -64.8 -234 -63.6Q-235.3 -62.5 -237.3 -62.5Z M-200.7 -62.4Q-206.8 -62.4 -210.2 -65.8Q-213.7 -69.3 -213.7 -75.3Q-213.7 -79.4 -212.1 -82.3Q-210.6 -85.3 -207.7 -86.9Q-204.9 -88.5 -201 -88.5Q-197.2 -88.5 -194.3 -87Q-191.5 -85.5 -189.9 -82.9Q-188.4 -80.3 -188.4 -76.9Q-188.4 -75.3 -189.3 -74.4Q-190.2 -73.5 -191.9 -73.5H-204.8Q-204.8 -73.3 -204.8 -73.2Q-204.8 -73.1 -204.8 -72.9Q-204.8 -71.1 -203.6 -69.9Q-202.4 -68.7 -200.6 -68.7Q-199.1 -68.7 -197.9 -69.2Q-196.7 -69.7 -195.4 -70.9Q-194.7 -71.5 -194 -71.8Q-193.4 -72 -192.6 -72Q-191.3 -72 -190.2 -71.2Q-189.2 -70.4 -189.2 -68.9Q-189.2 -67.9 -189.8 -66.9Q-191.1 -64.8 -194 -63.6Q-196.9 -62.4 -200.7 -62.4ZM-204.7 -78.5H-196.9Q-197 -79.6 -197.5 -80.4Q-198 -81.2 -198.9 -81.7Q-199.7 -82.1 -200.8 -82.1Q-201.8 -82.1 -202.7 -81.7Q-203.5 -81.2 -204 -80.4Q-204.6 -79.6 -204.7 -78.5Z M-180.9 -62.5Q-183.1 -62.5 -184.3 -63.7Q-185.6 -64.9 -185.6 -67.3V-83.8Q-185.6 -86 -184.3 -87.2Q-183.1 -88.4 -181.1 -88.4Q-179.1 -88.4 -177.9 -87.2Q-176.7 -86 -176.7 -83.8V-82.9H-176.5Q-176.1 -85.6 -174.9 -86.9Q-173.7 -88.2 -171.8 -88.2Q-171.1 -88.2 -170.6 -88Q-170 -87.9 -169.6 -87.6Q-168.9 -87.1 -168.5 -86.2Q-168.2 -85.3 -168.2 -84Q-168.2 -81.8 -169.5 -80.7Q-170.1 -80.1 -171.1 -79.8Q-172 -79.5 -173.3 -79.4Q-175.1 -79.4 -175.7 -78.6Q-176.3 -77.9 -176.3 -75.8V-67.3Q-176.3 -64.9 -177.6 -63.7Q-178.8 -62.5 -180.9 -62.5Z M-153.9 -62.4Q-160 -62.4 -163.4 -65.8Q-166.9 -69.3 -166.9 -75.3Q-166.9 -79.4 -165.3 -82.3Q-163.8 -85.3 -161 -86.9Q-158.1 -88.5 -154.2 -88.5Q-150.4 -88.5 -147.5 -87Q-144.7 -85.5 -143.1 -82.9Q-141.6 -80.3 -141.6 -76.9Q-141.6 -75.3 -142.5 -74.4Q-143.4 -73.5 -145.1 -73.5H-158Q-158 -73.3 -158 -73.2Q-158 -73.1 -158 -72.9Q-158 -71.1 -156.8 -69.9Q-155.6 -68.7 -153.8 -68.7Q-152.3 -68.7 -151.1 -69.2Q-149.9 -69.7 -148.6 -70.9Q-147.9 -71.5 -147.3 -71.8Q-146.6 -72 -145.8 -72Q-144.5 -72 -143.4 -71.2Q-142.4 -70.4 -142.4 -68.9Q-142.4 -67.9 -143 -66.9Q-144.3 -64.8 -147.2 -63.6Q-150.1 -62.4 -153.9 -62.4ZM-157.9 -78.5H-150.2Q-150.2 -79.6 -150.7 -80.4Q-151.3 -81.2 -152.1 -81.7Q-152.9 -82.1 -154 -82.1Q-155 -82.1 -155.9 -81.7Q-156.7 -81.2 -157.3 -80.4Q-157.8 -79.6 -157.9 -78.5Z M-125.4 -89.9Q-127.4 -89.9 -128.7 -91.1Q-130 -92.4 -130 -94.2Q-130 -96.1 -128.7 -97.4Q-127.4 -98.6 -125.4 -98.6Q-123.4 -98.6 -122.1 -97.4Q-120.8 -96.1 -120.8 -94.2Q-120.8 -92.4 -122.1 -91.1Q-123.4 -89.9 -125.4 -89.9ZM-125.4 -62.5Q-127.6 -62.5 -128.8 -63.7Q-130 -65 -130 -67.3V-83.6Q-130 -85.9 -128.8 -87.2Q-127.6 -88.4 -125.4 -88.4Q-123.2 -88.4 -122 -87.2Q-120.8 -85.9 -120.8 -83.6V-67.3Q-120.8 -65 -122 -63.7Q-123.2 -62.5 -125.4 -62.5Z M-105.8 -62.4Q-111 -62.4 -114.1 -63.8Q-117.1 -65.2 -118 -67.3Q-118.3 -68.1 -118.3 -68.7Q-118.3 -70.2 -117.3 -71.2Q-116.3 -72.1 -114.8 -72.1Q-112.8 -72.1 -110.8 -70.3Q-109.7 -69.4 -108.5 -68.9Q-107.3 -68.4 -105.8 -68.4Q-104.9 -68.4 -104.3 -68.6Q-103.7 -68.8 -103.3 -69.2Q-103 -69.6 -103 -70.1Q-103 -70.8 -103.6 -71.2Q-104.2 -71.6 -105.8 -71.9L-110.3 -72.7Q-113.9 -73.4 -115.9 -75.3Q-117.8 -77.3 -117.8 -80.1Q-117.8 -84 -114.7 -86.3Q-111.6 -88.5 -106.2 -88.5Q-103.1 -88.5 -100.8 -87.8Q-98.5 -87.1 -97.1 -85.9Q-95.7 -84.8 -95.2 -83.4Q-94.9 -82.8 -94.9 -82.1Q-94.9 -80.8 -95.8 -80Q-96.6 -79.1 -98.4 -79.1Q-99.1 -79.1 -100 -79.4Q-100.9 -79.7 -101.5 -80.1Q-102.4 -80.8 -103.4 -81.6Q-104.4 -82.5 -106.2 -82.5Q-107.4 -82.5 -108.2 -82Q-109 -81.5 -109 -80.7Q-109 -80 -108.4 -79.6Q-107.8 -79.1 -106.1 -78.8L-101.6 -78Q-97.6 -77.2 -95.7 -75.6Q-93.8 -74 -93.8 -71.2Q-93.8 -68.5 -95.3 -66.5Q-96.9 -64.6 -99.5 -63.5Q-102.2 -62.4 -105.8 -62.4Z M-77.3 -63Q-79.6 -63 -80.8 -64.4Q-82.1 -65.7 -82.1 -68V-90.5Q-82.1 -92.9 -80.8 -94.2Q-79.6 -95.5 -77.3 -95.5H-66.2Q-62.8 -95.5 -60.5 -94.5Q-58.2 -93.5 -56.9 -91.7Q-55.7 -89.9 -55.7 -87.4Q-55.7 -85.5 -56.5 -84Q-57.4 -82.5 -58.9 -81.6Q-60.4 -80.6 -62.2 -80.4V-80.2Q-60 -80.1 -58.2 -79.1Q-56.4 -78.1 -55.3 -76.4Q-54.2 -74.6 -54.2 -72.5Q-54.2 -69.7 -55.6 -67.5Q-57 -65.4 -59.6 -64.2Q-62.2 -63 -65.6 -63ZM-72.6 -82.5H-68.9Q-67 -82.5 -66 -83.4Q-64.9 -84.3 -64.9 -85.7Q-64.9 -87.2 -65.9 -88.1Q-67 -88.9 -68.8 -88.9H-72.6ZM-72.6 -69.6H-68.5Q-66.3 -69.6 -65.1 -70.6Q-63.9 -71.5 -63.9 -73.4Q-63.9 -75.1 -65.1 -76.1Q-66.3 -77 -68.4 -77H-72.6Z M-47 -62.5Q-49.1 -62.5 -50.3 -63.7Q-51.6 -64.9 -51.6 -67.3V-83.8Q-51.6 -86 -50.3 -87.2Q-49.1 -88.4 -47.1 -88.4Q-45.1 -88.4 -43.9 -87.2Q-42.7 -86 -42.7 -83.8V-82.9H-42.5Q-42.1 -85.6 -40.9 -86.9Q-39.7 -88.2 -37.8 -88.2Q-37.2 -88.2 -36.6 -88Q-36 -87.9 -35.6 -87.6Q-34.9 -87.1 -34.6 -86.2Q-34.2 -85.3 -34.2 -84Q-34.2 -81.8 -35.5 -80.7Q-36.1 -80.1 -37.1 -79.8Q-38 -79.5 -39.3 -79.4Q-41.1 -79.4 -41.8 -78.6Q-42.4 -77.9 -42.4 -75.8V-67.3Q-42.4 -64.9 -43.6 -63.7Q-44.8 -62.5 -47 -62.5Z M-27.7 -89.9Q-29.6 -89.9 -30.9 -91.1Q-32.3 -92.4 -32.3 -94.2Q-32.3 -96.1 -30.9 -97.4Q-29.6 -98.6 -27.7 -98.6Q-25.7 -98.6 -24.4 -97.4Q-23.1 -96.1 -23.1 -94.2Q-23.1 -92.4 -24.4 -91.1Q-25.7 -89.9 -27.7 -89.9ZM-27.7 -62.5Q-29.9 -62.5 -31.1 -63.7Q-32.3 -65 -32.3 -67.3V-83.6Q-32.3 -85.9 -31.1 -87.2Q-29.9 -88.4 -27.7 -88.4Q-25.5 -88.4 -24.3 -87.2Q-23.1 -85.9 -23.1 -83.6V-67.3Q-23.1 -65 -24.3 -63.7Q-25.5 -62.5 -27.7 -62.5Z M-12.2 -62.7Q-14.4 -62.7 -16.3 -63.7Q-18.2 -64.6 -19.4 -66.3Q-20.5 -68 -20.5 -70.3Q-20.5 -73.8 -17.9 -75.8Q-15.2 -77.7 -10.2 -78L-4.8 -78.3V-79.6Q-4.8 -80.8 -5.6 -81.5Q-6.5 -82.1 -7.8 -82.1Q-8.9 -82.1 -9.6 -81.7Q-10.4 -81.4 -11.5 -80.3Q-13.2 -78.8 -15.2 -78.8Q-16.8 -78.8 -17.8 -79.7Q-18.9 -80.6 -18.9 -82.1Q-18.9 -82.8 -18.7 -83.4Q-18 -85.8 -15 -87.1Q-11.9 -88.5 -7.3 -88.5Q-3.9 -88.5 -1.3 -87.4Q1.3 -86.3 2.7 -84.4Q4.2 -82.5 4.2 -80V-67.1Q4.2 -64.7 2.9 -63.6Q1.6 -62.5 -0.4 -62.5Q-2.2 -62.5 -3.4 -63.4Q-4.6 -64.4 -4.8 -66.4Q-4.8 -66.4 -4.8 -66.4Q-4.8 -66.4 -4.8 -66.4H-5Q-5.6 -65.2 -6.8 -64.3Q-7.9 -63.5 -9.3 -63.1Q-10.7 -62.7 -12.2 -62.7ZM-8.7 -68.8Q-7.7 -68.8 -6.8 -69.2Q-5.9 -69.6 -5.4 -70.2Q-4.8 -70.9 -4.8 -71.8V-73.4L-8.7 -73.2Q-10 -73.1 -10.7 -72.5Q-11.5 -71.9 -11.5 -71Q-11.5 -70 -10.7 -69.4Q-10 -68.8 -8.7 -68.8Z M12.2 -62.5Q10.2 -62.5 8.9 -63.6Q7.6 -64.8 7.6 -67.3V-83.8Q7.6 -86 8.8 -87.2Q9.9 -88.4 12.1 -88.4Q14.3 -88.4 15.6 -87.2Q16.8 -86 16.8 -83.8V-83.2H17Q18 -85.8 19.8 -87.1Q21.6 -88.3 24.4 -88.3Q27.2 -88.3 29.1 -87.2Q31 -86.1 32 -84Q33 -81.9 33 -78.9V-67.3Q33 -64.8 31.7 -63.6Q30.5 -62.5 28.4 -62.5Q26.4 -62.5 25.1 -63.6Q23.8 -64.8 23.8 -67.3V-76.9Q23.8 -78.8 23 -79.8Q22.1 -80.9 20.3 -80.9Q19.3 -80.9 18.5 -80.4Q17.7 -79.9 17.3 -79Q16.8 -78.1 16.8 -76.9V-67.3Q16.8 -64.8 15.6 -63.6Q14.3 -62.5 12.2 -62.5Z M46.8 -72.8Q45 -72.8 43.9 -73.9Q42.8 -75 42.8 -76.8Q42.8 -76.8 42.8 -76.8Q42.8 -76.8 42.8 -76.8Q42.8 -77.9 43.2 -78.8Q43.6 -79.7 44.4 -80.5Q45.2 -81.2 46.3 -81.8Q47.9 -82.7 48.8 -83.4Q49.6 -84.1 49.9 -84.7Q50.2 -85.4 50.2 -86.3Q50.2 -87.1 49.9 -87.6Q49.5 -88.2 48.8 -88.5Q48.2 -88.9 47.4 -88.9Q46.3 -88.9 45.6 -88.4Q44.8 -87.9 44.3 -86.9Q43.7 -85.8 42.7 -85.2Q41.6 -84.6 40.3 -84.6Q38.5 -84.6 37.4 -85.6Q36.3 -86.7 36.3 -88.4Q36.3 -89.1 36.5 -89.8Q36.7 -90.5 37.1 -91.1Q38.2 -93.1 41 -94.5Q43.8 -95.8 47.8 -95.8Q51.4 -95.8 54.1 -94.6Q56.7 -93.5 58.2 -91.4Q59.7 -89.4 59.7 -86.5Q59.7 -84.1 58.5 -82.3Q57.3 -80.5 54.8 -79.1Q53.2 -78.2 52.4 -77.6Q51.6 -77 51.2 -76.4Q50.8 -75.9 50.5 -75.2Q50.5 -75.2 50.5 -75.2Q50.5 -75.2 50.5 -75.2Q50 -74 49.1 -73.4Q48.2 -72.8 46.8 -72.8ZM46.9 -62.2Q45 -62.2 43.6 -63.5Q42.2 -64.8 42.2 -66.6Q42.2 -68.5 43.6 -69.8Q45 -71.1 46.9 -71.1Q48.9 -71.1 50.3 -69.8Q51.7 -68.5 51.7 -66.6Q51.7 -64.8 50.3 -63.5Q48.9 -62.2 46.9 -62.2Z" fill="#8a94a6"/><path d="M-281.8 20.7Q-284.5 20.7 -285.9 19.1Q-287.4 17.6 -287.4 14.8V-11.5Q-287.4 -14.4 -285.9 -15.9Q-284.5 -17.4 -281.8 -17.4H-268.7Q-264.8 -17.4 -262.1 -16.3Q-259.3 -15.1 -257.8 -13Q-256.4 -10.9 -256.4 -7.9Q-256.4 -5.7 -257.4 -4Q-258.4 -2.2 -260.1 -1.1Q-261.9 0 -264.1 0.3V0.5Q-261.5 0.6 -259.4 1.8Q-257.2 3 -255.9 5Q-254.7 7 -254.7 9.6Q-254.7 12.9 -256.3 15.4Q-258 17.9 -261 19.3Q-264 20.7 -268.1 20.7ZM-276.2 -2.2H-271.9Q-269.7 -2.2 -268.5 -3.2Q-267.2 -4.2 -267.2 -6Q-267.2 -7.7 -268.4 -8.7Q-269.6 -9.7 -271.7 -9.7H-276.2ZM-276.2 13H-271.5Q-268.9 13 -267.4 11.8Q-266 10.7 -266 8.5Q-266 6.5 -267.4 5.4Q-268.9 4.2 -271.4 4.2H-276.2Z M-246.2 21.3Q-248.6 21.3 -250.1 19.9Q-251.6 18.5 -251.6 15.7V-3.7Q-251.6 -6.3 -250.1 -7.7Q-248.7 -9.1 -246.3 -9.1Q-244 -9.1 -242.6 -7.7Q-241.2 -6.3 -241.2 -3.7V-2.6H-241Q-240.4 -5.8 -239 -7.3Q-237.6 -8.9 -235.5 -8.9Q-234.6 -8.9 -234 -8.7Q-233.3 -8.5 -232.8 -8.1Q-232 -7.5 -231.6 -6.5Q-231.2 -5.4 -231.2 -3.9Q-231.2 -1.4 -232.7 -0Q-233.4 0.6 -234.6 1Q-235.7 1.4 -237.2 1.4Q-239.3 1.5 -240 2.4Q-240.8 3.3 -240.8 5.7V15.7Q-240.8 18.5 -242.2 19.9Q-243.7 21.3 -246.2 21.3Z M-223.5 -10.9Q-225.8 -10.9 -227.4 -12.3Q-228.9 -13.8 -228.9 -16Q-228.9 -18.2 -227.4 -19.6Q-225.8 -21.1 -223.5 -21.1Q-221.2 -21.1 -219.7 -19.6Q-218.1 -18.2 -218.1 -16Q-218.1 -13.8 -219.7 -12.3Q-221.2 -10.9 -223.5 -10.9ZM-223.5 21.3Q-226.1 21.3 -227.5 19.8Q-228.9 18.4 -228.9 15.7V-3.5Q-228.9 -6.2 -227.5 -7.7Q-226.1 -9.1 -223.5 -9.1Q-220.9 -9.1 -219.5 -7.6Q-218.1 -6.2 -218.1 -3.5V15.7Q-218.1 18.4 -219.5 19.8Q-220.9 21.3 -223.5 21.3Z M-205.3 21.1Q-208 21.1 -210.2 19.9Q-212.4 18.8 -213.8 16.8Q-215.1 14.8 -215.1 12.2Q-215.1 8 -212 5.7Q-208.9 3.4 -203.1 3.1L-196.7 2.7V1.3Q-196.7 -0.2 -197.7 -1Q-198.7 -1.7 -200.2 -1.7Q-201.4 -1.7 -202.3 -1.3Q-203.2 -0.9 -204.6 0.4Q-206.5 2.2 -208.8 2.2Q-210.8 2.2 -212 1.1Q-213.2 0 -213.2 -1.7Q-213.2 -2.6 -213 -3.3Q-212.2 -6.1 -208.6 -7.6Q-205 -9.2 -199.6 -9.2Q-195.6 -9.2 -192.5 -7.9Q-189.5 -6.7 -187.8 -4.5Q-186.1 -2.2 -186.1 0.7V15.9Q-186.1 18.7 -187.6 20Q-189.1 21.3 -191.5 21.3Q-193.6 21.3 -195 20.2Q-196.4 19.1 -196.7 16.7Q-196.7 16.7 -196.7 16.7Q-196.7 16.7 -196.7 16.7H-196.9Q-197.6 18.2 -199 19.1Q-200.3 20.1 -202 20.6Q-203.6 21.1 -205.3 21.1ZM-201.3 13.8Q-200.1 13.8 -199 13.4Q-198 13 -197.3 12.2Q-196.7 11.4 -196.7 10.4V8.5L-201.3 8.8Q-202.8 8.9 -203.6 9.6Q-204.5 10.3 -204.5 11.3Q-204.5 12.5 -203.6 13.2Q-202.7 13.8 -201.3 13.8Z M-176.7 21.3Q-179 21.3 -180.5 20Q-182.1 18.6 -182.1 15.7V-3.7Q-182.1 -6.3 -180.7 -7.7Q-179.3 -9.1 -176.8 -9.1Q-174.3 -9.1 -172.8 -7.7Q-171.3 -6.3 -171.3 -3.7V-3H-171Q-169.9 -6.1 -167.8 -7.5Q-165.7 -9 -162.4 -9Q-159.1 -9 -156.8 -7.7Q-154.6 -6.4 -153.4 -4Q-152.2 -1.5 -152.2 2V15.7Q-152.2 18.6 -153.8 20Q-155.3 21.3 -157.6 21.3Q-160 21.3 -161.5 20Q-163.1 18.6 -163.1 15.7V4.4Q-163.1 2.2 -164.1 1Q-165.1 -0.3 -167.1 -0.3Q-168.4 -0.3 -169.3 0.3Q-170.3 0.9 -170.8 2Q-171.3 3 -171.3 4.4V15.7Q-171.3 18.6 -172.8 20Q-174.3 21.3 -176.7 21.3Z M-132.6 -10.9Q-134.9 -10.9 -136.5 -12.3Q-138 -13.8 -138 -16Q-138 -18.2 -136.5 -19.6Q-134.9 -21.1 -132.6 -21.1Q-130.3 -21.1 -128.8 -19.6Q-127.2 -18.2 -127.2 -16Q-127.2 -13.8 -128.8 -12.3Q-130.3 -10.9 -132.6 -10.9ZM-132.6 21.3Q-135.2 21.3 -136.6 19.8Q-138 18.4 -138 15.7V-3.5Q-138 -6.2 -136.6 -7.7Q-135.2 -9.1 -132.6 -9.1Q-130 -9.1 -128.6 -7.6Q-127.2 -6.2 -127.2 -3.5V15.7Q-127.2 18.4 -128.6 19.8Q-130 21.3 -132.6 21.3Z M-109.7 21.4Q-115.7 21.4 -119.3 19.8Q-122.9 18.1 -123.9 15.7Q-124.3 14.8 -124.3 14Q-124.3 12.2 -123.1 11.1Q-122 10 -120.2 10Q-117.8 10 -115.5 12.1Q-114.2 13.2 -112.8 13.8Q-111.4 14.3 -109.7 14.3Q-108.6 14.3 -107.9 14.1Q-107.1 13.8 -106.7 13.4Q-106.3 13 -106.3 12.3Q-106.3 11.6 -107 11.1Q-107.7 10.6 -109.6 10.3L-114.9 9.3Q-119.2 8.5 -121.4 6.2Q-123.7 4 -123.7 0.6Q-123.7 -4 -120 -6.6Q-116.4 -9.2 -110.1 -9.2Q-106.4 -9.2 -103.8 -8.4Q-101.1 -7.5 -99.4 -6.2Q-97.7 -4.8 -97.2 -3.3Q-96.9 -2.5 -96.9 -1.7Q-96.9 -0.2 -97.9 0.8Q-98.9 1.8 -101 1.8Q-101.8 1.8 -102.8 1.5Q-103.9 1.1 -104.5 0.6Q-105.7 -0.2 -106.8 -1.2Q-108 -2.1 -110.1 -2.1Q-111.5 -2.1 -112.4 -1.6Q-113.3 -1 -113.3 -0Q-113.3 0.7 -112.6 1.3Q-112 1.8 -110 2.1L-104.7 3.1Q-100 4 -97.8 5.9Q-95.6 7.8 -95.6 11.1Q-95.6 14.3 -97.3 16.6Q-99.1 18.9 -102.3 20.1Q-105.4 21.4 -109.7 21.4Z M-77 -10.9Q-79.3 -10.9 -80.8 -12.3Q-82.4 -13.8 -82.4 -16Q-82.4 -18.2 -80.8 -19.6Q-79.3 -21.1 -77 -21.1Q-74.7 -21.1 -73.2 -19.6Q-71.6 -18.2 -71.6 -16Q-71.6 -13.8 -73.2 -12.3Q-74.7 -10.9 -77 -10.9ZM-77 21.3Q-79.5 21.3 -81 19.8Q-82.4 18.4 -82.4 15.7V-3.5Q-82.4 -6.2 -81 -7.7Q-79.5 -9.1 -77 -9.1Q-74.4 -9.1 -73 -7.6Q-71.6 -6.2 -71.6 -3.5V15.7Q-71.6 18.4 -73 19.8Q-74.4 21.3 -77 21.3Z M-62.1 21.3Q-64.5 21.3 -66 20Q-67.5 18.6 -67.5 15.7V-3.7Q-67.5 -6.3 -66.2 -7.7Q-64.8 -9.1 -62.3 -9.1Q-59.7 -9.1 -58.2 -7.7Q-56.7 -6.3 -56.7 -3.7V-3H-56.5Q-55.4 -6.1 -53.3 -7.5Q-51.2 -9 -47.8 -9Q-44.6 -9 -42.3 -7.7Q-40.1 -6.4 -38.9 -4Q-37.7 -1.5 -37.7 2V15.7Q-37.7 18.6 -39.2 20Q-40.7 21.3 -43.1 21.3Q-45.5 21.3 -47 20Q-48.5 18.6 -48.5 15.7V4.4Q-48.5 2.2 -49.5 1Q-50.6 -0.3 -52.6 -0.3Q-53.9 -0.3 -54.8 0.3Q-55.7 0.9 -56.2 2Q-56.7 3 -56.7 4.4V15.7Q-56.7 18.6 -58.2 20Q-59.7 21.3 -62.1 21.3Z M-20.9 12.5V-0.6H-21.5Q-23.3 -0.6 -24.4 -1.7Q-25.4 -2.8 -25.4 -4.5Q-25.4 -6.3 -24.4 -7.4Q-23.3 -8.5 -21.5 -8.5H-20.9V-10Q-20.9 -12.7 -19.5 -14.1Q-18.1 -15.6 -15.5 -15.6Q-12.9 -15.6 -11.5 -14.1Q-10.1 -12.7 -10.1 -10V-8.5H-8.2Q-6.4 -8.5 -5.4 -7.4Q-4.3 -6.3 -4.3 -4.5Q-4.3 -2.8 -5.4 -1.7Q-6.4 -0.6 -8.2 -0.6H-10.1V10.1Q-10.1 11.4 -9.7 11.9Q-9.3 12.4 -8.5 12.5L-7.9 12.6Q-6.1 12.8 -5.2 13.6Q-4.2 14.5 -4.2 16.4Q-4.2 17.9 -5.3 19Q-6.4 20 -8.1 20.5Q-9.8 21.1 -11.8 21.1H-12Q-16.4 21.1 -18.6 18.9Q-20.9 16.7 -20.9 12.5Z M4.1 21.3Q1.8 21.3 0.3 20Q-1.3 18.6 -1.3 15.7V-12.6Q-1.3 -15.2 0.1 -16.6Q1.5 -18.1 4 -18.1Q6.5 -18.1 7.9 -16.6Q9.3 -15.2 9.3 -12.5V-2.7H9.5Q10.6 -5.8 12.9 -7.4Q15.2 -9 18.6 -9Q23.5 -9 26.1 -6.1Q28.6 -3.2 28.6 2V15.7Q28.6 18.6 27.1 20Q25.6 21.3 23.2 21.3Q20.9 21.3 19.3 20Q17.8 18.6 17.8 15.7V4.4Q17.8 2.2 16.8 1Q15.7 -0.3 13.7 -0.3Q12.3 -0.3 11.4 0.3Q10.5 0.9 10 2Q9.5 3 9.5 4.4V15.7Q9.5 18.6 8 20Q6.5 21.3 4.1 21.3Z M47.1 21.4Q39.9 21.4 35.9 17.4Q31.9 13.3 31.9 6.3Q31.9 1.5 33.7 -2Q35.5 -5.4 38.8 -7.3Q42.2 -9.2 46.7 -9.2Q51.2 -9.2 54.6 -7.4Q57.9 -5.7 59.7 -2.6Q61.6 0.5 61.6 4.4Q61.6 6.3 60.5 7.3Q59.4 8.4 57.4 8.4H42.3Q42.3 8.6 42.3 8.7Q42.3 8.9 42.3 9.1Q42.3 11.2 43.7 12.6Q45.1 14 47.2 14Q49 14 50.4 13.4Q51.8 12.8 53.3 11.4Q54.2 10.7 54.9 10.4Q55.6 10.1 56.6 10.1Q58.2 10.1 59.4 11.1Q60.6 12 60.6 13.8Q60.6 15 59.9 16.1Q58.4 18.6 55 20Q51.5 21.4 47.1 21.4ZM42.4 2.5H51.5Q51.4 1.2 50.8 0.3Q50.2 -0.7 49.2 -1.2Q48.2 -1.8 47 -1.8Q45.7 -1.8 44.8 -1.2Q43.8 -0.7 43.1 0.3Q42.5 1.3 42.4 2.5Z M80.7 21.3Q78.3 21.3 76.8 20Q75.3 18.6 75.3 15.7V-12.5Q75.3 -15.3 76.8 -16.7Q78.3 -18.1 80.7 -18.1Q83.1 -18.1 84.6 -16.7Q86.1 -15.3 86.1 -12.4V1.8H86.3L94.5 -6.8Q95.6 -8 96.7 -8.6Q97.7 -9.1 99 -9.1Q101.1 -9.1 102.5 -7.8Q103.9 -6.4 103.9 -4.3Q103.9 -3.1 103.4 -2.1Q102.9 -1.2 101.7 -0.1L96.6 4.6L102.1 12.2Q103 13.5 103.3 14.3Q103.7 15.2 103.7 16.3Q103.7 18.5 102.2 19.9Q100.8 21.3 98.4 21.3Q96.5 21.3 95.3 20.5Q94 19.6 92.6 17.4L88.4 10.5L86.1 12.6V15.7Q86.1 18.6 84.6 20Q83.1 21.3 80.7 21.3Z M112.4 -10.9Q110.1 -10.9 108.6 -12.3Q107.1 -13.8 107.1 -16Q107.1 -18.2 108.6 -19.6Q110.1 -21.1 112.4 -21.1Q114.7 -21.1 116.3 -19.6Q117.8 -18.2 117.8 -16Q117.8 -13.8 116.3 -12.3Q114.7 -10.9 112.4 -10.9ZM112.4 21.3Q109.9 21.3 108.4 19.8Q107 18.4 107 15.7V-3.5Q107 -6.2 108.4 -7.7Q109.9 -9.1 112.4 -9.1Q115 -9.1 116.4 -7.6Q117.8 -6.2 117.8 -3.5V15.7Q117.8 18.4 116.4 19.8Q115 21.3 112.4 21.3Z M124.5 12.5V-0.6H123.8Q122.1 -0.6 121 -1.7Q120 -2.8 120 -4.5Q120 -6.3 121 -7.4Q122.1 -8.5 123.8 -8.5H124.5V-10Q124.5 -12.7 125.9 -14.1Q127.3 -15.6 129.9 -15.6Q132.5 -15.6 133.9 -14.1Q135.3 -12.7 135.3 -10V-8.5H137.2Q139 -8.5 140 -7.4Q141.1 -6.3 141.1 -4.5Q141.1 -2.8 140 -1.7Q139 -0.6 137.2 -0.6H135.3V10.1Q135.3 11.4 135.7 11.9Q136.1 12.4 136.9 12.5L137.5 12.6Q139.2 12.8 140.2 13.6Q141.2 14.5 141.2 16.4Q141.2 17.9 140.1 19Q139 20 137.3 20.5Q135.6 21.1 133.6 21.1H133.4Q129 21.1 126.7 18.9Q124.5 16.7 124.5 12.5Z M158.4 21.4Q153.7 21.4 150.3 19.6Q146.9 17.7 145.1 14.3Q143.3 10.9 143.3 6.1Q143.3 1.3 145.1 -2.1Q146.9 -5.5 150.3 -7.4Q153.7 -9.2 158.4 -9.2Q161.5 -9.2 164.1 -8.4Q166.7 -7.6 168.6 -6Q170.5 -4.5 171.5 -2.4Q172.2 -0.9 172.2 0.4Q172.2 2.4 170.8 3.4Q169.4 4.4 167.6 4.4Q166 4.4 165 3.8Q164 3.2 163.2 2Q162.3 0.3 161.2 -0.4Q160.1 -1.2 158.8 -1.2Q156.5 -1.2 155.4 0.7Q154.2 2.5 154.2 6.1Q154.2 9.7 155.3 11.5Q156.5 13.3 158.7 13.3Q160.3 13.3 161.3 12.6Q162.3 11.8 163.1 10.8Q164.1 9.3 165.2 8.6Q166.2 7.9 167.9 7.9Q169.7 7.9 171.1 9Q172.4 10.1 172.4 12Q172.4 12.7 172.2 13.3Q172.1 14 171.6 14.9Q170.6 16.8 168.6 18.3Q166.6 19.8 164 20.6Q161.4 21.4 158.4 21.4Z M181.3 21.3Q178.9 21.3 177.4 20Q175.9 18.6 175.9 15.7V-12.6Q175.9 -15.2 177.3 -16.6Q178.6 -18.1 181.2 -18.1Q183.7 -18.1 185.1 -16.6Q186.4 -15.2 186.4 -12.5V-2.7H186.7Q187.7 -5.8 190.1 -7.4Q192.4 -9 195.7 -9Q200.6 -9 203.2 -6.1Q205.8 -3.2 205.8 2V15.7Q205.8 18.6 204.3 20Q202.8 21.3 200.4 21.3Q198 21.3 196.5 20Q195 18.6 195 15.7V4.4Q195 2.2 193.9 1Q192.9 -0.3 190.8 -0.3Q189.5 -0.3 188.6 0.3Q187.7 0.9 187.2 2Q186.7 3 186.7 4.4V15.7Q186.7 18.6 185.2 20Q183.7 21.3 181.3 21.3Z M224.2 21.4Q217.1 21.4 213 17.4Q209 13.3 209 6.3Q209 1.5 210.8 -2Q212.6 -5.4 216 -7.3Q219.3 -9.2 223.9 -9.2Q228.4 -9.2 231.7 -7.4Q235.1 -5.7 236.9 -2.6Q238.7 0.5 238.7 4.4Q238.7 6.3 237.7 7.3Q236.6 8.4 234.6 8.4H219.4Q219.4 8.6 219.4 8.7Q219.4 8.9 219.4 9.1Q219.4 11.2 220.8 12.6Q222.2 14 224.4 14Q226.2 14 227.5 13.4Q228.9 12.8 230.5 11.4Q231.3 10.7 232.1 10.4Q232.8 10.1 233.8 10.1Q235.3 10.1 236.5 11.1Q237.7 12 237.7 13.8Q237.7 15 237 16.1Q235.6 18.6 232.1 20Q228.7 21.4 224.2 21.4ZM219.6 2.5H228.7Q228.6 1.2 228 0.3Q227.4 -0.7 226.4 -1.2Q225.4 -1.8 224.1 -1.8Q222.9 -1.8 221.9 -1.2Q220.9 -0.7 220.3 0.3Q219.7 1.3 219.6 2.5Z M247.4 21.3Q245.1 21.3 243.5 20Q242 18.6 242 15.7V-3.7Q242 -6.3 243.4 -7.7Q244.7 -9.1 247.3 -9.1Q249.8 -9.1 251.3 -7.7Q252.8 -6.3 252.8 -3.7V-3H253Q254.2 -6.1 256.3 -7.5Q258.4 -9 261.7 -9Q265 -9 267.2 -7.7Q269.5 -6.4 270.7 -4Q271.8 -1.5 271.8 2V15.7Q271.8 18.6 270.3 20Q268.8 21.3 266.4 21.3Q264.1 21.3 262.6 20Q261 18.6 261 15.7V4.4Q261 2.2 260 1Q259 -0.3 256.9 -0.3Q255.7 -0.3 254.8 0.3Q253.8 0.9 253.3 2Q252.8 3 252.8 4.4V15.7Q252.8 18.6 251.3 20Q249.8 21.3 247.4 21.3Z M281.9 21Q279.6 21 278 19.4Q276.4 17.8 276.4 15.5Q276.4 13.3 278 11.7Q279.6 10.1 281.9 10.1Q284.2 10.1 285.8 11.7Q287.4 13.3 287.4 15.5Q287.4 17.8 285.8 19.4Q284.2 21 281.9 21Z" fill="#011a52"/><path d="M-286 58C-287 58 -287.6 58.8 -287.6 59.9C-287.6 61 -287 61.7 -286 61.7H-260.4C-259 61.7 -258.4 62.1 -258.4 63.2C-258.4 63.4 -258.4 63.6 -258.5 63.9C-259.9 75.7 -268.6 84 -281.2 87.4C-282.2 87.6 -282.6 88.3 -282.6 89.2C-282.6 89.4 -282.6 89.6 -282.6 89.9C-282.3 90.7 -281.7 91.1 -280.9 91.1C-280.7 91.1 -280.4 91.1 -280.1 91C-265.5 87.4 -256.2 77.4 -254.4 64C-254.3 63.5 -254.3 63.2 -254.3 62.8C-254.3 61.5 -254.6 60.4 -255.2 59.6C-256 58.5 -257.3 58 -259.4 58ZM-257.7 53C-257.7 53.3 -257.6 53.7 -257.3 54C-256.2 55.5 -255 57.5 -254.3 59.1C-254 59.6 -253.7 60 -253 60C-252.3 60 -251.6 59.5 -251.6 58.8C-251.6 58.3 -251.7 58 -251.8 57.7C-252.6 56.2 -254 53.9 -255.2 52.4C-255.5 52.1 -255.8 51.8 -256.4 51.8C-257.1 51.8 -257.7 52.4 -257.7 53ZM-252 51.5C-252 51.9 -251.9 52.1 -251.6 52.5C-250.5 54 -249.5 55.8 -248.7 57.5C-248.4 58 -248.2 58.3 -247.5 58.3C-246.7 58.3 -246.1 57.9 -246.1 57C-246.1 56.7 -246.2 56.3 -246.3 56.1C-247.1 54.5 -248.5 52.2 -249.5 51C-249.9 50.6 -250.2 50.3 -250.7 50.3C-251.4 50.3 -252 50.8 -252 51.5Z M-236.1 54.9C-237 54.9 -237.6 55.7 -237.6 56.7C-237.6 57.6 -237 58.5 -236.1 58.5H-211.9C-211 58.5 -210.4 57.6 -210.4 56.7C-210.4 55.7 -211 54.9 -211.9 54.9ZM-239.4 65.2C-240.4 65.2 -240.9 66.1 -240.9 67C-240.9 67.9 -240.4 68.8 -239.4 68.8H-213.6C-212.2 68.8 -211.7 69.3 -211.7 70.1C-211.7 70.4 -211.7 70.7 -211.8 71C-213.7 78.8 -221.3 85.1 -231.9 86.7C-232.8 86.9 -233.4 87.5 -233.4 88.5C-233.4 88.6 -233.4 88.7 -233.4 88.8C-233.2 89.9 -232.5 90.5 -231.5 90.5C-231.4 90.5 -231.3 90.5 -231.1 90.4C-218.9 88.7 -210.1 81.1 -207.9 71.6C-207.8 70.9 -207.7 70.2 -207.7 69.5C-207.7 68.6 -207.8 67.8 -208.2 67.2C-209 65.9 -210.3 65.2 -212.3 65.2Z M-176.1 66.5C-171.6 63.4 -167.8 60 -165 56.9C-164.7 56.5 -164.6 56.1 -164.6 55.7C-164.6 55.2 -164.8 54.7 -165.3 54.3C-165.7 54 -166.2 53.8 -166.6 53.8C-167.1 53.8 -167.7 54.1 -168.1 54.5C-171.7 58.6 -175.2 61.6 -180.1 64.7C-186 68.5 -191.9 71.2 -197 72.9C-197.9 73.2 -198.3 73.9 -198.3 74.6C-198.3 74.9 -198.3 75.1 -198.3 75.3C-197.9 76.1 -197.4 76.5 -196.6 76.5C-196.3 76.5 -196 76.5 -195.7 76.4C-190.7 74.7 -185.2 72.2 -180 69.1V88.9C-180 90.1 -179.2 90.7 -178 90.7C-176.9 90.7 -176.1 90.1 -176.1 89Z M-152.3 55.8C-153.3 55.8 -153.9 56.5 -153.9 57.6C-153.9 58.8 -153.4 59.4 -152.3 59.4H-123.4C-122.4 59.4 -121.9 59.9 -121.9 60.5C-121.9 60.8 -122 61.2 -122.2 61.6C-124.2 65.3 -127.9 68.4 -131.8 70.1C-132.5 70.4 -132.9 71 -132.9 71.8C-132.9 72.1 -132.8 72.4 -132.7 72.7C-132.3 73.3 -131.8 73.6 -131.2 73.6C-130.8 73.6 -130.5 73.5 -130.2 73.4C-125.7 71.6 -120.9 67.4 -118.7 62.7C-118.2 61.7 -118 60.7 -118 59.9C-118 58.9 -118.3 58.1 -118.7 57.4C-119.5 56.4 -120.7 55.8 -122.7 55.8ZM-137.2 63.4C-138.4 63.4 -139.3 64 -139.3 65.3C-139.3 72.1 -140 75.8 -141.5 79C-143.3 82.8 -146.7 85.6 -150.9 87C-151.8 87.3 -152.2 87.9 -152.2 88.6C-152.2 88.8 -152.1 89.2 -152 89.5C-151.7 90.3 -151.1 90.6 -150.4 90.6C-150.1 90.6 -149.8 90.6 -149.5 90.4C-144.7 88.8 -140.5 85.6 -138.1 80.8C-136.3 77.2 -135.3 72.9 -135.3 65.2C-135.3 64 -136 63.4 -137.2 63.4Z M-104.7 57C-105.1 56.7 -105.5 56.6 -106 56.6C-106.6 56.6 -107 56.7 -107.4 57.2C-107.7 57.6 -107.9 58 -107.9 58.5C-107.9 59 -107.7 59.5 -107.2 59.9C-104.1 62.1 -100.4 65.2 -98 67.9C-97.5 68.5 -96.9 68.8 -96.4 68.8C-95.9 68.8 -95.4 68.6 -95 68.2C-94.6 67.7 -94.4 67.2 -94.4 66.7C-94.4 66.2 -94.6 65.7 -94.9 65.3C-97.5 62.1 -101.5 59 -104.7 57ZM-75.2 60.2C-75.5 60.2 -75.7 60.1 -75.9 60.1C-76.7 60.1 -77.3 60.6 -77.7 61.8C-79.2 68.3 -83.1 74.7 -88.2 78.7C-92.6 82.1 -100.1 84.7 -106.6 85C-107.7 85 -108.4 85.9 -108.4 86.9C-108.4 87 -108.4 87 -108.4 87.1C-108.3 88.2 -107.4 88.9 -106.3 88.9C-106.3 88.9 -106.3 88.9 -106.2 88.9C-99.4 88.6 -91.2 86 -85.9 82C-79.8 77.4 -75.6 70.3 -73.8 62.8C-73.8 62.5 -73.7 62.3 -73.7 62C-73.7 61.1 -74.3 60.5 -75.2 60.2Z M-37.8 61.7C-37.8 60.3 -37.8 58.9 -37.8 57.4C-37.8 56.6 -37.8 55.9 -37.8 55.1C-37.8 54.1 -38.5 53.5 -39.6 53.5C-40.7 53.5 -41.3 54 -41.3 55.2C-41.3 57.4 -41.3 59.7 -41.2 61.9C-43.6 62.1 -46.1 62.1 -48.5 62.1C-50.2 62.1 -51.8 62.1 -53.4 62.1C-53.5 62.1 -53.5 62.1 -53.5 62.1C-54.5 62.1 -55.1 62.7 -55.1 63.7C-55.1 64.8 -54.6 65.5 -53.5 65.5C-52 65.6 -50.4 65.6 -48.9 65.6C-46.2 65.6 -43.6 65.5 -41.1 65.4C-41.1 67.9 -41 70.2 -40.9 72.3C-40.8 73.8 -40.6 75.5 -40.5 77C-42.1 76.5 -44 76.2 -46 76.2C-51.2 76.2 -54.5 79 -54.5 83C-54.5 87.4 -51 90 -45.6 90C-40 90 -36.9 87.8 -36.9 83.2C-36.9 82.9 -36.9 82.4 -36.9 82C-35.2 83 -33.6 84.4 -31.8 86.3C-31.5 86.7 -31 86.9 -30.6 86.9C-30.1 86.9 -29.6 86.7 -29.3 86.3C-28.9 85.9 -28.7 85.5 -28.7 85C-28.7 84.5 -28.9 84 -29.3 83.6C-31.2 81.6 -34.3 79.4 -37 78.2C-37.1 76.3 -37.3 74 -37.4 72.3C-37.6 70.1 -37.7 67.8 -37.7 65.2C-35.1 65 -32.8 64.7 -30.8 64.3C-29.9 64.1 -29.5 63.6 -29.5 62.7C-29.5 62.5 -29.5 62.4 -29.5 62.3C-29.6 61.4 -30.1 60.9 -31 60.9C-31.1 60.9 -31.3 60.9 -31.4 60.9C-33.4 61.3 -35.6 61.5 -37.8 61.7ZM-40.3 80.4C-40.3 81 -40.2 81.3 -40.2 81.7C-40.2 85.2 -41.7 86.7 -45.9 86.7C-49.1 86.7 -51.1 85.2 -51.1 83C-51.1 80.8 -49.1 79.3 -46 79.3C-43.9 79.3 -42.1 79.7 -40.3 80.4ZM-60 53.6C-60.2 53.6 -60.4 53.6 -60.6 53.6C-61.5 53.6 -62.1 54 -62.4 55.1C-63.9 61 -65 69.1 -65 75.2C-65 80.4 -64.5 85.1 -63.6 88.9C-63.4 89.9 -62.8 90.6 -61.8 90.6C-61.7 90.6 -61.5 90.6 -61.3 90.5C-60.3 90.3 -59.9 89.7 -59.9 88.8C-59.9 88.5 -60 88.3 -60 88C-60.8 84.3 -61.3 79.7 -61.3 75.2C-61.3 69.1 -60.3 61.7 -58.8 55.9C-58.7 55.6 -58.6 55.4 -58.6 55.1C-58.6 54.4 -59.1 53.8 -60 53.6Z M-12.8 65.9C-10.1 62.2 -7.3 57.9 -5.3 54.1C-5.2 53.8 -5.1 53.6 -5.1 53.3C-5.1 52.7 -5.6 52.2 -6.3 52C-6.6 51.8 -6.9 51.8 -7.2 51.8C-7.9 51.8 -8.5 52.1 -8.8 52.8C-10.8 57 -13.7 61.8 -17 65.9C-17.8 65.9 -18.6 65.9 -19.5 65.9C-20.3 65.9 -21.1 65.9 -21.9 65.9C-22.9 65.9 -23.4 66.7 -23.4 67.6C-23.4 67.6 -23.4 67.7 -23.4 67.7C-23.4 68.7 -22.8 69.4 -21.7 69.4C-12.6 69.3 -0.8 68.7 9.3 67.5C10.3 68.7 11.2 69.8 11.9 70.9C12.4 71.4 12.9 71.7 13.3 71.7C13.8 71.7 14.2 71.5 14.6 71.2C15.1 70.9 15.3 70.4 15.3 69.9C15.3 69.5 15.2 69.1 14.9 68.7C12 65 7.4 60.2 3.6 56.8C3.3 56.5 2.8 56.3 2.4 56.3C2 56.3 1.6 56.5 1.3 56.8C0.9 57.1 0.7 57.5 0.7 58C0.7 58.3 0.8 58.7 1.1 58.9C3 60.7 5.1 62.7 6.9 64.7C0.4 65.4 -6.2 65.7 -12.8 65.9ZM-15 73.8C-17.7 73.8 -19 74.9 -19 77.5V87.4C-19 90.1 -17.7 91.2 -15 91.2H6.9C9.6 91.2 10.9 90.1 10.9 87.4V77.5C10.9 74.9 9.6 73.8 6.9 73.8ZM-14.1 88C-15.1 88 -15.5 87.7 -15.5 86.7V78.2C-15.5 77.2 -15.1 76.9 -14.1 76.9H6C7 76.9 7.4 77.2 7.4 78.2V86.7C7.4 87.7 7 88 6 88Z M45.3 65.2V59.7C45.3 58.7 45.6 58.3 46.6 58.1C50.4 57.5 54.9 56.6 58.6 55.2C59.2 55 59.5 54.5 59.5 53.9C59.5 53.6 59.5 53.4 59.4 53.1C59.1 52.4 58.5 52 57.9 52C57.7 52 57.4 52.1 57.2 52.2C53.7 53.5 49.3 54.5 45.2 55.2C43 55.5 41.9 56.8 41.9 58.9V65.3C41.9 77.5 40 83.3 34.6 88.8C34.2 89.2 34.1 89.6 34.1 90C34.1 90.5 34.3 91 34.7 91.3C35.1 91.6 35.5 91.8 35.9 91.8C36.4 91.8 37 91.5 37.4 91.1C42.4 85.7 45 79.2 45.3 68.4H51.9V91C51.9 91.8 52.6 92.3 53.6 92.3C54.7 92.3 55.3 91.8 55.3 91V68.4H59.4C60.2 68.4 60.7 67.6 60.7 66.8C60.7 65.9 60.2 65.2 59.4 65.2ZM34.3 76C36.8 76 37.9 75.1 37.9 72.5V64.8C37.9 62.1 36.8 61.3 34.3 61.3H26.1C23.6 61.3 22.4 62.4 22.4 64.9C22.4 72.2 22.3 76.3 21.8 79.6C21.3 83.3 20.6 86.3 19.2 88.8C19 89.2 18.9 89.5 18.9 89.8C18.9 90.4 19.2 90.9 19.8 91.2C20.1 91.4 20.4 91.4 20.7 91.4C21.3 91.4 21.9 91.1 22.2 90.4C24.2 86.6 25.2 81.6 25.6 76ZM25.7 73C25.7 71.8 25.7 70.6 25.7 69.4C25.7 68.1 25.7 66.8 25.7 65.5C25.7 64.5 26.2 64.3 27.1 64.3H33.4C34.3 64.3 34.7 64.4 34.7 65.5V71.8C34.7 72.8 34.3 73 33.4 73ZM21.7 53.7C20.8 53.7 20.4 54.4 20.4 55.3C20.4 56.2 20.8 56.9 21.7 56.9H38.6C39.3 56.9 39.8 56.2 39.8 55.3C39.8 54.4 39.3 53.7 38.6 53.7Z M72.3 53.7C72.1 53.7 72 53.7 71.8 53.7C71 53.7 70.3 54.1 70.1 55C68.4 61.2 67.5 68.3 67.5 75.2C67.5 80.1 67.9 84.9 68.8 88.9C69 90.1 69.7 90.6 70.5 90.6C70.6 90.6 70.8 90.6 71 90.6C71.9 90.3 72.5 89.8 72.5 88.8C72.5 88.6 72.5 88.4 72.4 88.1C71.7 84.1 71.3 79.4 71.3 75C71.3 68.6 72.1 61.7 73.7 55.8C73.8 55.6 73.8 55.4 73.8 55.2C73.8 54.4 73.2 53.9 72.3 53.7ZM98.5 58.4C95 58.8 89.9 59.1 85.2 59.1C83.6 59.1 82 59 80.6 59C80.5 59 80.5 59 80.5 59C79.3 59 78.7 59.9 78.7 60.8C78.7 61.8 79.2 62.7 80.5 62.8C82 62.8 83.6 62.8 85.2 62.8C90 62.8 95.3 62.6 99 62.2C100.2 62.1 100.7 61.2 100.7 60.2C100.7 60.2 100.7 60.1 100.7 60.1C100.5 59.1 100 58.4 98.9 58.4C98.7 58.4 98.7 58.4 98.5 58.4ZM83.3 72.6C82.9 72.3 82.6 72.1 82.2 72.1C81.7 72.1 81.1 72.3 80.7 72.8C78.4 74.9 77.3 77.4 77.3 80.1C77.3 85.6 81.6 87.9 89.7 87.9C93.8 87.9 97.6 87.6 100.9 87C101.9 86.8 102.4 85.9 102.4 85.1C102.4 84.9 102.4 84.8 102.4 84.6C102.2 83.7 101.5 83.1 100.6 83.1C100.5 83.1 100.3 83.1 100.1 83.2C97.1 83.8 93.1 84.2 89.3 84.2C83.1 84.2 80.7 82.8 80.7 80.1C80.7 78.4 81.5 76.8 83.3 75C83.7 74.6 83.9 74.2 83.9 73.8C83.9 73.4 83.7 73 83.3 72.6Z M110.8 58.3C110.8 63 110.8 68.1 111.1 71.6C111.5 78 112.9 82.8 114.8 85.7C116.3 87.9 118.3 88.8 120.1 88.8C121.8 88.8 123.5 88 125 86.2C126.5 84.3 127.6 81.3 128.2 77.2C128.3 77.1 128.3 76.9 128.3 76.8C128.3 75.7 127.6 75.2 126.6 75.1C126.5 75 126.3 75 126.2 75C125.2 75 124.7 75.5 124.6 76.6C124.1 79.7 123.3 81.9 122.4 83.3C121.8 84.3 120.9 84.7 119.9 84.7C118.9 84.7 117.8 83.8 117.2 82.7C115.9 80 115.2 76.7 114.7 71.4C114.6 69.4 114.5 66.7 114.5 63.9C114.5 62.1 114.5 60.1 114.5 58.3C114.5 57.2 114.2 56.4 112.8 56.4C111.5 56.4 110.8 57.1 110.8 58.3ZM136 59C135.4 59.2 135.1 59.8 135.1 60.4C135.1 60.8 135.2 61.2 135.4 61.5C139.4 67.1 142.1 75 142.7 82.4C142.8 83.5 143.5 84.1 144.5 84.1C144.6 84.1 144.8 84.1 145 84.1C146.1 83.9 146.5 83.1 146.5 82C146.5 81.9 146.5 81.8 146.5 81.7C145.9 74.2 142.8 65.3 138.6 59.5C138.2 58.9 137.6 58.7 137.1 58.7C136.7 58.7 136.4 58.8 136 59Z M166.5 70.4C167.7 69.7 169.2 68.7 170.4 67.8C174 65.4 178.1 62.3 181.9 58.8C182.5 58.2 182.7 57.6 182.7 56.9C182.7 56.5 182.6 56.1 182.4 55.7C181.9 54.9 181.2 54.6 180.2 54.6C180.1 54.6 179.9 54.6 179.8 54.6C173.9 55 166.4 55.2 160.5 55.2C159.5 55.2 158.9 56 158.9 57C158.9 58 159.6 58.7 160.6 58.7C166.2 58.7 172.9 58.4 177.7 58C172.2 62.9 162.4 70.1 155.2 74.5C154.5 74.9 154.1 75.5 154.1 76.2C154.1 76.5 154.2 76.8 154.4 77.1C154.8 77.7 155.4 78 156 78C156.4 78 156.8 77.9 157.2 77.7C164.4 73.2 169.8 71.2 175.6 71.2C181.9 71.2 185.3 74.3 185.3 78.5C185.3 82.6 181.9 85.3 177.5 86.4C176.7 80.6 172.8 77.7 168 77.7C163.7 77.7 160.9 80.2 160.9 83.7C160.9 87.8 165.1 90.5 171.6 90.5C182.3 90.5 189.1 85.8 189.1 78.4C189.1 72.4 184.2 68.3 176.3 68.3C173.2 68.3 170 69 166.5 70.5ZM174 87.2C173 87.3 171.9 87.3 170.8 87.3C166.9 87.2 164.3 85.5 164.3 83.5C164.3 81.9 165.6 80.7 167.9 80.7C170.9 80.7 173.7 82.9 174 87.2Z" fill="#c8102e" stroke="#c8102e" stroke-width="3.2" stroke-linejoin="round"/></g>
</g>
</svg>
